<svg width="90" height="76" viewBox="0 0 90 76" fill="none" xmlns="http://www.w3.org/2000/svg">
<path d="M90 38C90 58.9868 72.9868 76 52 76C31.0132 76 14 58.9868 14 38C14 17.0132 31.0132 0 52 0C72.9868 0 90 17.0132 90 38Z" fill="#1C60BF" fill-opacity="0.05"/>
<g clip-path="url(#clip0)">
<path d="M48.8633 41.0173C49.3485 42.7999 49.4754 44.6611 49.2365 46.4931C48.9976 48.3251 48.3978 50.0915 47.4716 51.6901C47.3795 51.8501 47.2567 51.9905 47.1103 52.1031C46.9639 52.2157 46.7968 52.2984 46.6184 52.3464C46.4401 52.3944 46.254 52.4068 46.0709 52.3829C45.8878 52.359 45.7111 52.2993 45.5511 52.2072C45.391 52.115 45.2507 51.9922 45.138 51.8458C45.0254 51.6994 44.9428 51.5323 44.8947 51.354C44.8467 51.1756 44.8343 50.9896 44.8582 50.8064C44.8821 50.6233 44.9418 50.4466 45.034 50.2866C45.7712 49.0063 46.249 47.5933 46.44 46.1283C46.6311 44.6633 46.5318 43.175 46.1477 41.7484C45.7636 40.3219 45.1023 38.9849 44.2015 37.8139C43.3007 36.6429 42.178 35.6608 40.8976 34.9237C40.5744 34.7376 40.3384 34.4307 40.2414 34.0706C40.1444 33.7105 40.1945 33.3265 40.3806 33.0033C40.5667 32.6801 40.8736 32.444 41.2337 32.3471C41.5939 32.2501 41.9778 32.3002 42.301 32.4863C43.9046 33.4037 45.3103 34.6301 46.4368 36.0944C47.5632 37.5588 48.388 39.232 48.8635 41.0173L48.8633 41.0173ZM29.5444 28.7428L38.3188 61.3323C38.3872 61.5864 38.3829 61.8547 38.3063 62.1066C38.2298 62.3584 38.0841 62.5837 37.8858 62.7569C37.6875 62.93 37.4447 63.044 37.1848 63.086C36.9249 63.1279 36.6585 63.096 36.4159 62.994L22.0803 56.9664L14.3989 59.0345C13.6786 59.2276 12.9112 59.127 12.265 58.755C11.6188 58.3829 11.1466 57.7697 10.9519 57.0499L8.02708 46.1868C7.83403 45.4665 7.93456 44.6991 8.30661 44.0529C8.67866 43.4067 9.29186 42.9345 10.0117 42.7398L17.6931 40.6716L27.0643 28.2611C27.223 28.0511 27.4374 27.8898 27.6832 27.7955C27.9289 27.7013 28.1962 27.678 28.4546 27.7282C28.713 27.7784 28.9522 27.9001 29.1448 28.0794C29.3374 28.2588 29.4759 28.4886 29.5444 28.7428ZM13.6677 56.3187L20.4571 54.4907L17.5323 43.6276L10.7429 45.4556L13.6677 56.3187ZM27.5761 32.2504L20.0613 42.2025L23.3597 54.4534L34.8555 59.2871L27.5761 32.2504ZM36.8723 39.0971C36.6862 39.4203 36.6362 39.8042 36.7332 40.1643C36.8302 40.5244 37.0662 40.8312 37.3894 41.0173C37.8696 41.2937 38.2906 41.662 38.6283 42.1011C38.9661 42.5402 39.2141 43.0415 39.3582 43.5765C39.5022 44.1114 39.5394 44.6695 39.4678 45.2189C39.3961 45.7682 39.2169 46.2981 38.9405 46.7782C38.847 46.9383 38.7861 47.1153 38.7613 47.299C38.7365 47.4827 38.7482 47.6695 38.7959 47.8487C38.8435 48.0278 38.9261 48.1958 39.0389 48.3429C39.1517 48.4901 39.2925 48.6134 39.4532 48.7059C39.6138 48.7984 39.7912 48.8583 39.9751 48.882C40.1589 48.9057 40.3457 48.8928 40.5245 48.8441C40.7034 48.7953 40.8709 48.7117 41.0173 48.598C41.1637 48.4843 41.2863 48.3428 41.3778 48.1816C41.8386 47.3814 42.1372 46.4983 42.2566 45.5827C42.3761 44.6671 42.314 43.7369 42.074 42.8453C41.8339 41.9537 41.4206 41.1181 40.8575 40.3862C40.2945 39.6543 39.5929 39.0406 38.7926 38.5799C38.6326 38.4877 38.456 38.4279 38.2728 38.404C38.0897 38.3801 37.9036 38.3925 37.7253 38.4405C37.547 38.4886 37.3798 38.5712 37.2334 38.6839C37.0871 38.7965 36.9643 38.9369 36.8722 39.0969L36.8723 39.0971Z" fill="#FAD26C" fill-opacity="0.6"/>
</g>
<defs>
<clipPath id="clip0">
<rect width="45" height="45" fill="white" transform="translate(0.924072 30.6233) rotate(-15.069)"/>
</clipPath>
</defs>
</svg>
