<svg width="84" height="76" viewBox="0 0 84 76" fill="none" xmlns="http://www.w3.org/2000/svg">
<path d="M84 38C84 58.9868 66.9868 76 46 76C25.0132 76 8 58.9868 8 38C8 17.0132 25.0132 0 46 0C66.9868 0 84 17.0132 84 38Z" fill="#1C60BF" fill-opacity="0.05"/>
<path d="M30.9375 56.9375V65.375H8.4375V31.625H22.5V28.8125H8.4375C7.69158 28.8125 6.97621 29.1088 6.44876 29.6363C5.92132 30.1637 5.625 30.8791 5.625 31.625V65.375C5.625 66.1209 5.92132 66.8363 6.44876 67.3637C6.97621 67.8912 7.69158 68.1875 8.4375 68.1875H30.9375C31.6834 68.1875 32.3988 67.8912 32.9262 67.3637C33.4537 66.8363 33.75 66.1209 33.75 65.375V56.9375H30.9375Z" fill="#FAD26C" fill-opacity="0.6"/>
<path d="M41.5406 34.1L36.9 29.4593C36.4794 29.0471 35.9139 28.8162 35.325 28.8162C34.7361 28.8162 34.1706 29.0471 33.75 29.4593L14.0625 49.1468V56.9375H21.8391L41.5266 37.25C41.9388 36.8294 42.1697 36.2639 42.1697 35.675C42.1697 35.086 41.9388 34.5206 41.5266 34.1H41.5406ZM20.6719 54.125H16.875V50.3281L30.15 37.039L33.9609 40.85L20.6719 54.125ZM35.9438 38.8672L32.1328 35.0562L35.325 31.864L39.1359 35.675L35.9438 38.8672Z" fill="#FAD26C" fill-opacity="0.6"/>
</svg>
