<svg width="80" height="76" viewBox="0 0 80 76" fill="none" xmlns="http://www.w3.org/2000/svg">
<path d="M80 38C80 58.9868 62.9868 76 42 76C21.0132 76 4 58.9868 4 38C4 17.0132 21.0132 0 42 0C62.9868 0 80 17.0132 80 38Z" fill="#1C60BF" fill-opacity="0.05"/>
<path fill-rule="evenodd" clip-rule="evenodd" d="M29.64 32.56H6.84C6.23531 32.56 5.65538 32.8002 5.2278 33.2278C4.80021 33.6554 4.56 34.2353 4.56 34.84V62.2C4.56 62.8047 4.80021 63.3846 5.2278 63.8122C5.65538 64.2398 6.23531 64.48 6.84 64.48H29.64C30.2447 64.48 30.8246 64.2398 31.2522 63.8122C31.6798 63.3846 31.92 62.8047 31.92 62.2V34.84C31.92 34.2353 31.6798 33.6554 31.2522 33.2278C30.8246 32.8002 30.2447 32.56 29.64 32.56ZM6.84 28C5.02592 28 3.28614 28.7206 2.00339 30.0034C0.720641 31.2861 0 33.0259 0 34.84V62.2C0 64.0141 0.720641 65.7539 2.00339 67.0366C3.28614 68.3194 5.02592 69.04 6.84 69.04H29.64C31.4541 69.04 33.1939 68.3194 34.4766 67.0366C35.7594 65.7539 36.48 64.0141 36.48 62.2V34.84C36.48 33.0259 35.7594 31.2861 34.4766 30.0034C33.1939 28.7206 31.4541 28 29.64 28H6.84Z" fill="#FAD26C" fill-opacity="0.6"/>
<path d="M9.12 37.12H27.36V41.68H9.12V37.12Z" fill="#FAD26C" fill-opacity="0.6"/>
<path d="M9.12 46.24H27.36V50.8H9.12V46.24Z" fill="#FAD26C" fill-opacity="0.6"/>
<path d="M9.12 55.36H20.52V59.92H9.12V55.36Z" fill="#FAD26C" fill-opacity="0.6"/>
</svg>
