<svg width="80" height="76" viewBox="0 0 80 76" fill="none" xmlns="http://www.w3.org/2000/svg">
<path d="M80 38C80 58.9868 62.9868 76 42 76C21.0132 76 4 58.9868 4 38C4 17.0132 21.0132 0 42 0C62.9868 0 80 17.0132 80 38Z" fill="#1C60BF" fill-opacity="0.05"/>
<path d="M31.7534 46.0223H22.7973V38.2061H19.8662C20.7735 36.9949 21.261 35.5209 21.2547 34.0076C21.2547 31.7572 20.1899 29.6426 18.4757 28.4893L17.7484 28L17.0213 28.4893C15.3068 29.6428 14.2422 31.7572 14.2422 34.0076C14.2361 35.5209 14.7237 36.9949 15.6311 38.206H12.3757V46.0223H4.7223C3.4703 46.0237 2.27 46.5217 1.3847 47.407C0.499406 48.2922 0.00142226 49.4926 0 50.7446V65.3946C0.000775795 66.0854 0.275522 66.7476 0.763963 67.236C1.2524 67.7245 1.91465 67.9992 2.60541 68H33.8703C34.5611 67.9992 35.2233 67.7245 35.7117 67.236C36.2002 66.7476 36.4749 66.0854 36.4757 65.3946V50.7446C36.4743 49.4926 35.9763 48.2923 35.091 47.407C34.2057 46.5217 33.0054 46.0238 31.7534 46.0223ZM17.7484 31.3242C18.3176 32.0312 18.6493 32.9905 18.6493 34.0077C18.6493 35.0248 18.3176 35.9842 17.7484 36.6911C17.1794 35.9842 16.8476 35.0248 16.8476 34.0076C16.8476 32.9903 17.1794 32.0312 17.7484 31.3242ZM14.9811 40.8115H20.1919V46.0223H14.9811V40.8115ZM2.60541 50.7446C2.60605 50.1834 2.82929 49.6453 3.22614 49.2485C3.623 48.8516 4.16106 48.6284 4.7223 48.6277H31.7534C32.3146 48.6284 32.8527 48.8516 33.2496 49.2485C33.6464 49.6453 33.8696 50.1834 33.8703 50.7446V53.3156L32.1116 54.0916C31.7677 54.2429 31.396 54.3211 31.0203 54.3211C30.6445 54.3211 30.2728 54.2429 29.9289 54.0916L26.8683 52.7411L23.8069 54.0915C23.4629 54.2429 23.0913 54.321 22.7155 54.321C22.3397 54.321 21.968 54.2429 21.6241 54.0915L18.5635 52.741L15.5022 54.0914C15.1582 54.2428 14.7865 54.321 14.4108 54.321C14.035 54.321 13.6633 54.2428 13.3193 54.0914L10.2588 52.7411L7.19801 54.0914C6.85405 54.2428 6.48237 54.321 6.10659 54.321C5.7308 54.321 5.35912 54.2428 5.01516 54.0914L2.60541 53.0284V50.7446ZM33.8703 65.3946H2.60541V55.8761L3.96331 56.4752C4.63871 56.7724 5.36853 56.9259 6.10642 56.9259C6.84431 56.9259 7.57414 56.7724 8.24953 56.4752L10.2588 55.5887L12.2681 56.4752C12.9435 56.7724 13.6733 56.9259 14.4112 56.9259C15.1491 56.9259 15.8789 56.7724 16.5543 56.4752L18.5635 55.5887L20.5727 56.4752C21.2481 56.7724 21.9779 56.9259 22.7157 56.9259C23.4536 56.9259 24.1834 56.7724 24.8588 56.4752L26.8683 55.5887L28.8775 56.4753C29.5529 56.7725 30.2827 56.9259 31.0205 56.9259C31.7584 56.9259 32.4881 56.7725 33.1635 56.4753L33.8713 56.1631L33.8719 65.3946H33.8703Z" fill="#FAD26C" fill-opacity="0.6"/>
</svg>
