<svg width="80" height="76" viewBox="0 0 80 76" fill="none" xmlns="http://www.w3.org/2000/svg">
<path d="M80 38C80 58.9868 62.9868 76 42 76C21.0132 76 4 58.9868 4 38C4 17.0132 21.0132 0 42 0C62.9868 0 80 17.0132 80 38Z" fill="#1C60BF" fill-opacity="0.05"/>
<path d="M10.8 36L0 48.375V69H21.6V48.375L10.8 36ZM18 64.875H12.6V58.6875H9V64.875H3.6V50.0869L10.8 41.8369L18 50.0869V64.875ZM12.6 54.5625H9V50.4375H12.6V54.5625ZM28.8 69V44.9719L20.97 36H15.876L25.2 46.6838V69H28.8ZM36 69V41.5481L31.158 36H26.064L32.4 43.26V69H36Z" fill="#FAD26C" fill-opacity="0.6"/>
</svg>
