<svg width="85" height="76" viewBox="0 0 85 76" fill="none" xmlns="http://www.w3.org/2000/svg">
<path d="M85 38C85 58.9868 67.9868 76 47 76C26.0132 76 9 58.9868 9 38C9 17.0132 26.0132 0 47 0C67.9868 0 85 17.0132 85 38Z" fill="#1C60BF" fill-opacity="0.05"/>
<path d="M14.0625 50.3125H25.3125V53.125H14.0625V50.3125Z" fill="#FAD26C" fill-opacity="0.6"/>
<path d="M14.0625 43.2812H30.9375V46.0938H14.0625V43.2812Z" fill="#FAD26C" fill-opacity="0.6"/>
<path d="M14.0625 57.3438H21.0938V60.1562H14.0625V57.3438Z" fill="#FAD26C" fill-opacity="0.6"/>
<path d="M35.1562 32.0312H30.9375V30.625C30.9375 29.8791 30.6412 29.1637 30.1137 28.6363C29.5863 28.1088 28.8709 27.8125 28.125 27.8125H16.875C16.1291 27.8125 15.4137 28.1088 14.8863 28.6363C14.3588 29.1637 14.0625 29.8791 14.0625 30.625V32.0312H9.84375C9.09783 32.0312 8.38246 32.3276 7.85501 32.855C7.32757 33.3825 7.03125 34.0978 7.03125 34.8438V64.375C7.03125 65.1209 7.32757 65.8363 7.85501 66.3637C8.38246 66.8912 9.09783 67.1875 9.84375 67.1875H35.1562C35.9022 67.1875 36.6175 66.8912 37.145 66.3637C37.6724 65.8363 37.9688 65.1209 37.9688 64.375V34.8438C37.9688 34.0978 37.6724 33.3825 37.145 32.855C36.6175 32.3276 35.9022 32.0312 35.1562 32.0312ZM16.875 30.625H28.125V36.25H16.875V30.625ZM35.1562 64.375H9.84375V34.8438H14.0625V39.0625H30.9375V34.8438H35.1562V64.375Z" fill="#FAD26C" fill-opacity="0.6"/>
</svg>
