<svg width="80" height="76" viewBox="0 0 80 76" fill="none" xmlns="http://www.w3.org/2000/svg">
<path d="M80 38C80 58.9868 62.9868 76 42 76C21.0132 76 4 58.9868 4 38C4 17.0132 21.0132 0 42 0C62.9868 0 80 17.0132 80 38Z" fill="#1C60BF" fill-opacity="0.05"/>
<path d="M20.207 42.0196L22.8328 44.6454C24.0391 45.8516 24.996 47.2836 25.6489 48.8597C26.3018 50.4357 26.6378 52.125 26.6378 53.8309C26.6378 55.5369 26.3018 57.2261 25.6489 58.8022C24.996 60.3782 24.0391 61.8102 22.8328 63.0165L22.1759 63.6715C19.7397 66.1077 16.4356 67.4763 12.9903 67.4763C9.54508 67.4763 6.24094 66.1077 3.80478 63.6715C1.36862 61.2354 2.56691e-08 57.9312 0 54.486C-2.56691e-08 51.0407 1.36862 47.7366 3.80478 45.3004L6.43054 47.9262C5.56278 48.7864 4.87346 49.8095 4.40217 50.9368C3.93087 52.0641 3.68689 53.2734 3.68421 54.4953C3.68154 55.7172 3.92023 56.9275 4.38658 58.0569C4.85293 59.1863 5.53776 60.2124 6.40175 61.0764C7.26574 61.9404 8.29187 62.6252 9.42124 63.0916C10.5506 63.5579 11.761 63.7966 12.9828 63.7939C14.2047 63.7913 15.414 63.5473 16.5413 63.076C17.6686 62.6047 18.6918 61.9154 19.552 61.0476L20.2089 60.3907C21.9483 58.6508 22.9254 56.2912 22.9254 53.8309C22.9254 51.3706 21.9483 49.0111 20.2089 47.2711L17.5831 44.6454L20.2089 42.0215L20.207 42.0196ZM32.6734 53.174L30.0495 50.5501C30.9172 49.6899 31.6065 48.6668 32.0778 47.5395C32.5491 46.4121 32.7931 45.2028 32.7958 43.981C32.7985 42.7591 32.5598 41.5488 32.0934 40.4194C31.6271 39.29 30.9422 38.2639 30.0783 37.3999C29.2143 36.5359 28.1881 35.8511 27.0588 35.3847C25.9294 34.9184 24.719 34.6797 23.4972 34.6824C22.2753 34.685 21.066 34.929 19.9387 35.4003C18.8114 35.8716 17.7882 36.5609 16.928 37.4287L16.2711 38.0856C14.5317 39.8255 13.5546 42.1851 13.5546 44.6454C13.5546 47.1057 14.5317 49.4652 16.2711 51.2052L18.8969 53.8309L16.2711 56.4548L13.6472 53.8309C12.4409 52.6247 11.484 51.1927 10.8311 49.6166C10.1782 48.0405 9.84218 46.3513 9.84218 44.6454C9.84218 42.9394 10.1782 41.2502 10.8311 39.6741C11.484 38.0981 12.4409 36.666 13.6472 35.4598L14.3041 34.8048C16.7403 32.3686 20.0444 31 23.4897 31C26.9349 31 30.2391 32.3686 32.6752 34.8048C35.1114 37.2409 36.48 40.5451 36.48 43.9903C36.48 47.4356 35.1114 50.7397 32.6752 53.1759L32.6734 53.174Z" fill="#FAD26C" fill-opacity="0.6"/>
</svg>
