<svg width="78" height="76" viewBox="0 0 78 76" fill="none" xmlns="http://www.w3.org/2000/svg">
<path d="M78 38C78 58.9868 60.9868 76 40 76C19.0132 76 2 58.9868 2 38C2 17.0132 19.0132 0 40 0C60.9868 0 78 17.0132 78 38Z" fill="#1C60BF" fill-opacity="0.05"/>
<path d="M33.8518 45.9421L25.9117 53.8821L23.5056 51.4946L20.896 54.1228L25.8932 59.12L36.48 48.5702L33.8518 45.9421ZM3.70167 45.4053C3.67888 46.3838 3.8548 47.3567 4.21878 48.2652C4.58277 49.1737 5.12725 49.999 5.81931 50.691C6.51137 51.3831 7.33662 51.9276 8.24514 52.2916C9.15366 52.6555 10.1266 52.8315 11.105 52.8087C12.0835 52.8315 13.0564 52.6555 13.9649 52.2916C14.8734 51.9276 15.6987 51.3831 16.3907 50.691C17.0828 49.999 17.6273 49.1737 17.9913 48.2652C18.3553 47.3567 18.5312 46.3838 18.5084 45.4053C18.5312 44.4269 18.3553 43.4539 17.9913 42.5454C17.6273 41.6369 17.0828 40.8117 16.3907 40.1196C15.6987 39.4275 14.8734 38.8831 13.9649 38.5191C13.0564 38.1551 12.0835 37.9792 11.105 38.002C10.1266 37.9792 9.15366 38.1551 8.24514 38.5191C7.33662 38.8831 6.51137 39.4275 5.81931 40.1196C5.12725 40.8117 4.58277 41.6369 4.21878 42.5454C3.8548 43.4539 3.67888 44.4269 3.70167 45.4053ZM14.8067 45.4053C14.8305 45.8977 14.7511 46.3897 14.5734 46.8496C14.3958 47.3095 14.124 47.7271 13.7754 48.0757C13.4268 48.4243 13.0092 48.6961 12.5493 48.8737C12.0894 49.0513 11.5974 49.1308 11.105 49.107C10.6126 49.1308 10.1207 49.0513 9.66077 48.8737C9.20088 48.6961 8.78323 48.4243 8.43463 48.0757C8.08603 47.7271 7.8142 47.3095 7.6366 46.8496C7.459 46.3897 7.37954 45.8977 7.40335 45.4053C7.37954 44.9129 7.459 44.4209 7.6366 43.9611C7.8142 43.5012 8.08603 43.0835 8.43463 42.7349C8.78323 42.3863 9.20088 42.1145 9.66077 41.9369C10.1207 41.7593 10.6126 41.6798 11.105 41.7036C11.5974 41.6798 12.0894 41.7593 12.5493 41.9369C13.0092 42.1145 13.4268 42.3863 13.7754 42.7349C14.124 43.0835 14.3958 43.5012 14.5734 43.9611C14.7511 44.4209 14.8305 44.9129 14.8067 45.4053ZM3.70167 63.9137C3.70167 62.4411 4.28667 61.0288 5.32797 59.9875C6.36927 58.9462 7.78157 58.3612 9.25419 58.3612H12.9559C14.4285 58.3612 15.8408 58.9462 16.8821 59.9875C17.9234 61.0288 18.5084 62.4411 18.5084 63.9137V65.7645H22.21V63.9137C22.21 62.6984 21.9707 61.495 21.5056 60.3723C21.0405 59.2495 20.3589 58.2293 19.4996 57.37C18.6402 56.5107 17.6201 55.829 16.4973 55.3639C15.3745 54.8989 14.1711 54.6595 12.9559 54.6595H9.25419C6.79982 54.6595 4.44598 55.6345 2.71049 57.37C0.974992 59.1055 0 61.4593 0 63.9137V65.7645H3.70167V63.9137Z" fill="#FAD26C" fill-opacity="0.6"/>
</svg>
