<svg width="78" height="76" viewBox="0 0 78 76" fill="none" xmlns="http://www.w3.org/2000/svg">
<path d="M78 38C78 58.9868 60.9868 76 40 76C19.0132 76 2 58.9868 2 38C2 17.0132 19.0132 0 40 0C60.9868 0 78 17.0132 78 38Z" fill="#1C60BF" fill-opacity="0.05"/>
<g clip-path="url(#clip0)">
<path d="M13.4092 42.9944C11.2875 42.9944 9.25264 43.8372 7.75234 45.3375C6.25205 46.8378 5.4092 48.8727 5.4092 50.9944C5.4092 53.1161 6.25205 55.1509 7.75234 56.6512C9.25264 58.1515 11.2875 58.9944 13.4092 58.9944C15.5309 58.9944 17.5658 58.1515 19.0661 56.6512C20.5663 55.1509 21.4092 53.1161 21.4092 50.9944C21.4092 48.8727 20.5663 46.8378 19.0661 45.3375C17.5658 43.8372 15.5309 42.9944 13.4092 42.9944ZM15.8908 44.6296C16.0669 44.631 16.2395 44.6788 16.3911 44.7683C16.5428 44.8578 16.6681 44.9858 16.7544 45.1393C16.8408 45.2927 16.885 45.4663 16.8828 45.6423C16.8805 45.8184 16.8318 45.9908 16.7416 46.142L13.9816 50.9228L16.8804 52.7916C16.9908 52.8627 17.0861 52.9549 17.1608 53.0629C17.2356 53.1709 17.2884 53.2925 17.3161 53.4209C17.3439 53.5493 17.346 53.6818 17.3226 53.8111C17.2991 53.9403 17.2503 54.0636 17.1792 54.174C17.1081 54.2844 17.0159 54.3797 16.9079 54.4544C16.7999 54.5292 16.6783 54.5819 16.5499 54.6097C16.4215 54.6374 16.2889 54.6396 16.1597 54.6161C16.0305 54.5926 15.9072 54.5439 15.7968 54.4728L12.0968 52.0884C11.881 51.9492 11.7269 51.7324 11.6666 51.4828C11.6063 51.2332 11.6443 50.9699 11.7728 50.7476L15.0092 45.142C15.0967 44.9854 15.2247 44.8553 15.3799 44.7652C15.535 44.6751 15.7114 44.6284 15.8908 44.63V44.6296Z" fill="#FAD26C" fill-opacity="0.6"/>
<path fill-rule="evenodd" clip-rule="evenodd" d="M1.0092 31C0.877106 30.9988 0.74608 31.0238 0.623691 31.0735C0.501301 31.1232 0.389974 31.1967 0.296138 31.2897C0.202303 31.3826 0.12782 31.4933 0.0769909 31.6152C0.0261618 31.7372 -5.58968e-06 31.8679 8.95614e-10 32L8.95614e-10 60.116C3.19804e-05 60.3066 0.0545297 60.4933 0.157074 60.6539C0.259619 60.8146 0.405939 60.9426 0.5788 61.0228L13.2452 66.9068C13.3801 66.9696 13.5273 67.0014 13.676 67C13.8186 66.9989 13.9594 66.9673 14.0888 66.9072L26.334 61.2188L38.5792 66.9068C38.7316 66.9775 38.8992 67.0087 39.0668 66.9975C39.2344 66.9862 39.3964 66.933 39.538 66.8426C39.6796 66.7523 39.7961 66.6277 39.8768 66.4805C39.9576 66.3332 39.9999 66.168 40 66V37.884C40 37.6935 39.9455 37.5068 39.8429 37.3462C39.7404 37.1855 39.5941 37.0575 39.4212 36.9772L26.7548 31.0932C26.6198 31.0305 26.4725 30.9986 26.3236 31C26.1812 31.0013 26.0408 31.0329 25.9116 31.0928L13.6664 36.7812L1.4212 31.0932C1.29207 31.0332 1.1516 31.0014 1.0092 31ZM26.7804 33.31L38 38.522V64.4328L26.9288 59.29L26.7804 33.31ZM25.5812 33.4516L25.7292 59.2936L14.2584 64.6228L14.2336 60.2744C13.8344 60.3056 13.4336 60.3104 13.0336 60.2876L13.0584 64.6148L2 59.4772V33.5672L12.91 38.6352L12.928 41.7984C13.3295 41.7956 13.7306 41.8199 14.1288 41.8712L14.1108 38.7804L25.5812 33.4516Z" fill="#FAD26C" fill-opacity="0.6"/>
</g>
<defs>
<clipPath id="clip0">
<rect width="40" height="40" fill="white" transform="translate(0 29)"/>
</clipPath>
</defs>
</svg>
