<svg width="27" height="22" viewBox="0 0 27 22" fill="none" xmlns="http://www.w3.org/2000/svg">
<path d="M21.065 3.00072C23.005 3.00072 24.565 4.57072 24.565 6.50072C24.565 8.39072 23.065 9.93072 21.195 10.0007C21.1086 9.99072 21.0214 9.99072 20.935 10.0007M22.995 19.0007C23.715 18.8507 24.395 18.5607 24.955 18.1307C26.515 16.9607 26.515 15.0307 24.955 13.8607C24.405 13.4407 23.735 13.1607 23.025 13.0007M13.815 9.87072C13.715 9.86072 13.595 9.86072 13.485 9.87072C12.3372 9.83175 11.2496 9.34756 10.4526 8.52068C9.65562 7.6938 9.21174 6.58918 9.215 5.44072C9.215 2.99072 11.195 1.00072 13.655 1.00072C14.8312 0.979505 15.9677 1.42641 16.8144 2.24314C17.6612 3.05986 18.1488 4.17949 18.17 5.35572C18.1912 6.53196 17.7443 7.66845 16.9276 8.51517C16.1109 9.3619 14.9912 9.8495 13.815 9.87072ZM8.815 13.5607C6.395 15.1807 6.395 17.8207 8.815 19.4307C11.565 21.2707 16.075 21.2707 18.825 19.4307C21.245 17.8107 21.245 15.1707 18.825 13.5607C16.085 11.7307 11.575 11.7307 8.815 13.5607Z" stroke="white" stroke-width="1.5" stroke-linecap="round" stroke-linejoin="round"/>
<path d="M9.45703 9.13574V10.665H0.685547V9.13574H9.45703ZM5.88867 5.40039V14.7168H4.2627V5.40039H5.88867Z" fill="white"/>
</svg>
