<svg width="21" height="26" viewBox="0 0 21 26" fill="none" xmlns="http://www.w3.org/2000/svg">
<path d="M9.04597 5.96997C5.73597 5.96997 3.04597 8.65997 3.04597 11.97V14.86C3.04597 15.47 2.78597 16.4 2.47597 16.92L1.32597 18.83C0.615967 20.01 1.10597 21.32 2.40597 21.76C6.71597 23.2 11.366 23.2 15.676 21.76C16.886 21.36 17.416 19.93 16.756 18.83L15.606 16.92C15.306 16.4 15.046 15.47 15.046 14.86V11.97C15.046 8.66997 12.346 5.96997 9.04597 5.96997Z" stroke="white" stroke-width="1.5" stroke-miterlimit="10" stroke-linecap="round"/>
<path d="M10.8953 6.26C9.68602 5.91559 8.4046 5.91559 7.19531 6.26C7.48531 5.52 8.20531 5 9.04531 5C9.88531 5 10.6053 5.52 10.8953 6.26Z" stroke="white" stroke-width="1.5" stroke-miterlimit="10" stroke-linecap="round" stroke-linejoin="round"/>
<path d="M12.0459 22.1201C12.0459 23.7701 10.6959 25.1201 9.0459 25.1201C8.2259 25.1201 7.4659 24.7801 6.9259 24.2401C6.36405 23.6774 6.04769 22.9153 6.0459 22.1201" stroke="white" stroke-width="1.5" stroke-miterlimit="10"/>
<circle cx="14.5" cy="6.5" r="6.5" fill="#FF0000"/>
<path d="M13.9189 5.91309H14.6221C14.8955 5.91309 15.1217 5.86589 15.3008 5.77148C15.4831 5.67708 15.6182 5.54688 15.7061 5.38086C15.7939 5.21484 15.8379 5.02441 15.8379 4.80957C15.8379 4.58496 15.7972 4.3929 15.7158 4.2334C15.6377 4.07064 15.5173 3.94531 15.3545 3.85742C15.195 3.76953 14.9915 3.72559 14.7441 3.72559C14.5358 3.72559 14.347 3.7679 14.1777 3.85254C14.0117 3.93392 13.8799 4.05111 13.7822 4.2041C13.6846 4.35384 13.6357 4.53288 13.6357 4.74121H12.4541C12.4541 4.36361 12.5534 4.02832 12.752 3.73535C12.9505 3.44238 13.2207 3.21289 13.5625 3.04688C13.9076 2.8776 14.2949 2.79297 14.7246 2.79297C15.1836 2.79297 15.584 2.86947 15.9258 3.02246C16.2708 3.1722 16.5394 3.39681 16.7314 3.69629C16.9235 3.99577 17.0195 4.36686 17.0195 4.80957C17.0195 5.01139 16.9723 5.21647 16.8779 5.4248C16.7835 5.63314 16.6436 5.82357 16.458 5.99609C16.2725 6.16536 16.0413 6.30371 15.7646 6.41113C15.488 6.5153 15.1673 6.56738 14.8027 6.56738H13.9189V5.91309ZM13.9189 6.83105V6.18652H14.8027C15.2194 6.18652 15.5742 6.23535 15.8672 6.33301C16.1634 6.43066 16.4043 6.56576 16.5898 6.73828C16.7754 6.90755 16.9105 7.10124 16.9951 7.31934C17.083 7.53743 17.127 7.76855 17.127 8.0127C17.127 8.34473 17.0667 8.64095 16.9463 8.90137C16.8291 9.15853 16.6615 9.37663 16.4434 9.55566C16.2253 9.7347 15.9697 9.86979 15.6768 9.96094C15.387 10.0521 15.0713 10.0977 14.7295 10.0977C14.4235 10.0977 14.1305 10.0553 13.8506 9.9707C13.5706 9.88607 13.32 9.76074 13.0986 9.59473C12.8773 9.42546 12.7015 9.21549 12.5713 8.96484C12.4443 8.71094 12.3809 8.41797 12.3809 8.08594H13.5576C13.5576 8.29753 13.6064 8.4847 13.7041 8.64746C13.805 8.80697 13.945 8.93229 14.124 9.02344C14.3063 9.11458 14.5146 9.16016 14.749 9.16016C14.9964 9.16016 15.2096 9.11621 15.3887 9.02832C15.5677 8.94043 15.7044 8.81022 15.7988 8.6377C15.8965 8.46517 15.9453 8.25684 15.9453 8.0127C15.9453 7.736 15.8916 7.51139 15.7842 7.33887C15.6768 7.16634 15.5238 7.03939 15.3252 6.95801C15.1266 6.87337 14.8923 6.83105 14.6221 6.83105H13.9189Z" fill="white"/>
</svg>
