<svg width="22" height="21" viewBox="0 0 22 21" fill="none" xmlns="http://www.w3.org/2000/svg">
<path d="M16 17H12L7.55 19.96C7.39982 20.0601 7.22528 20.1176 7.045 20.1263C6.86472 20.135 6.68546 20.0945 6.52635 20.0093C6.36724 19.9241 6.23424 19.7973 6.14154 19.6425C6.04884 19.4876 5.99992 19.3105 6 19.13V17C3 17 1 15 1 12V6C1 3 3 1 6 1H16C19 1 21 3 21 6V12C21 15 19 17 16 17Z" stroke="white" stroke-width="1.5" stroke-miterlimit="10" stroke-linecap="round" stroke-linejoin="round"/>
<path d="M10.9998 9.93018V9.72018C10.9998 9.04018 11.4198 8.68018 11.8398 8.39018C12.2498 8.11018 12.6598 7.75018 12.6598 7.09018C12.6598 6.17018 11.9198 5.43018 10.9998 5.43018C10.0798 5.43018 9.33984 6.17018 9.33984 7.09018M10.9948 12.3202H11.0048" stroke="white" stroke-width="1.5" stroke-linecap="round" stroke-linejoin="round"/>
</svg>
