<svg width="33" height="33" viewBox="0 0 33 33" fill="none" xmlns="http://www.w3.org/2000/svg">
<path d="M5.49988 24.75V15.125M10.9999 24.75V15.125M16.4999 24.75V15.125M21.9999 24.75V15.125M27.4999 24.75V15.125M1.37488 30.25H31.6249M17.0086 2.95628L29.3836 7.90628C29.8649 8.09878 30.2499 8.67628 30.2499 9.18503V13.75C30.2499 14.5063 29.6311 15.125 28.8749 15.125H4.12488C3.36863 15.125 2.74988 14.5063 2.74988 13.75V9.18503C2.74988 8.67628 3.13488 8.09878 3.61613 7.90628L15.9911 2.95628C16.2661 2.84628 16.7336 2.84628 17.0086 2.95628ZM30.2499 30.25H2.74988V26.125C2.74988 25.3688 3.36863 24.75 4.12488 24.75H28.8749C29.6311 24.75 30.2499 25.3688 30.2499 26.125V30.25Z" stroke="#B2B2B2" stroke-width="1.06" stroke-miterlimit="10" stroke-linecap="round" stroke-linejoin="round"/>
<path d="M16.5 11.6875C16.7709 11.6875 17.0391 11.6342 17.2893 11.5305C17.5395 11.4269 17.7669 11.2749 17.9584 11.0834C18.1499 10.8919 18.3019 10.6645 18.4055 10.4143C18.5092 10.1641 18.5625 9.89585 18.5625 9.625C18.5625 9.35415 18.5092 9.08595 18.4055 8.83572C18.3019 8.58548 18.1499 8.35811 17.9584 8.16659C17.7669 7.97507 17.5395 7.82315 17.2893 7.7195C17.0391 7.61585 16.7709 7.5625 16.5 7.5625C15.953 7.5625 15.4284 7.7798 15.0416 8.16659C14.6548 8.55339 14.4375 9.07799 14.4375 9.625C14.4375 10.172 14.6548 10.6966 15.0416 11.0834C15.4284 11.4702 15.953 11.6875 16.5 11.6875Z" stroke="#B2B2B2" stroke-width="1.06" stroke-miterlimit="10" stroke-linecap="round" stroke-linejoin="round"/>
</svg>
