<svg width="34" height="35" viewBox="0 0 34 35" fill="none" xmlns="http://www.w3.org/2000/svg">
<path d="M32.5 17.5C32.5 26.3512 25.546 33.5 17 33.5C8.45398 33.5 1.5 26.3512 1.5 17.5C1.5 8.64883 8.45398 1.5 17 1.5C25.546 1.5 32.5 8.64883 32.5 17.5Z" stroke="#B2B2B2"/>
<path d="M25 12H9.5C8.94772 12 8.5 12.4477 8.5 13V22C8.5 22.5523 8.94772 23 9.5 23H25C25.5523 23 26 22.5523 26 22V13C26 12.4477 25.5523 12 25 12Z" stroke="#B2B2B2"/>
<path d="M13 12L8.5 17" stroke="#B2B2B2"/>
<path d="M13.5 16H22" stroke="#B2B2B2" stroke-linecap="round"/>
<path d="M15.5 19.5L16.2711 18.7289C16.5919 18.4081 17.14 18.5599 17.25 19V19C17.36 19.4401 17.9081 19.5919 18.2289 19.2711L18.4531 19.0469C18.7221 18.7779 19.1757 18.8515 19.3459 19.1918V19.1918C19.4403 19.3807 19.6334 19.5 19.8446 19.5H21.5" stroke="#B2B2B2" stroke-linecap="round"/>
</svg>
