<svg width="109" height="22" viewBox="0 0 109 22" fill="none" xmlns="http://www.w3.org/2000/svg">
<g opacity="0.7">
<path d="M31.6837 15.4668V17H24.1544V15.4668H31.6837ZM24.5353 2.78125V17H22.6505V2.78125H24.5353ZM30.6877 8.89453V10.4277H24.1544V8.89453H30.6877ZM31.5861 2.78125V4.32422H24.1544V2.78125H31.5861ZM35.7412 8.5332V17H33.9248V6.43359H35.6435L35.7412 8.5332ZM35.3701 11.3164L34.5302 11.2871C34.5367 10.5645 34.6311 9.89714 34.8134 9.28516C34.9957 8.66667 35.2659 8.12956 35.624 7.67383C35.9821 7.2181 36.428 6.86654 36.9619 6.61914C37.4957 6.36523 38.1142 6.23828 38.8173 6.23828C39.3121 6.23828 39.7679 6.3099 40.1845 6.45312C40.6012 6.58984 40.9625 6.80794 41.2685 7.10742C41.5745 7.4069 41.8121 7.79102 41.9814 8.25977C42.1507 8.72852 42.2353 9.29492 42.2353 9.95898V17H40.4287V10.0469C40.4287 9.49349 40.3343 9.05078 40.1455 8.71875C39.9632 8.38672 39.7028 8.14583 39.3642 7.99609C39.0257 7.83984 38.6285 7.76172 38.1728 7.76172C37.639 7.76172 37.193 7.85612 36.8349 8.04492C36.4768 8.23372 36.1904 8.49414 35.9755 8.82617C35.7607 9.1582 35.6044 9.53906 35.5068 9.96875C35.4156 10.3919 35.3701 10.8411 35.3701 11.3164ZM42.2158 10.3203L41.0048 10.6914C41.0114 10.112 41.1058 9.55534 41.288 9.02148C41.4768 8.48763 41.747 8.01237 42.0986 7.5957C42.4567 7.17904 42.8961 6.85026 43.4169 6.60938C43.9378 6.36198 44.5335 6.23828 45.2041 6.23828C45.7705 6.23828 46.2718 6.31315 46.708 6.46289C47.1507 6.61263 47.5218 6.84375 47.8212 7.15625C48.1272 7.46224 48.3584 7.85612 48.5146 8.33789C48.6709 8.81966 48.749 9.39258 48.749 10.0566V17H46.9326V10.0371C46.9326 9.44466 46.8382 8.98568 46.6494 8.66016C46.4671 8.32812 46.2067 8.09701 45.8681 7.9668C45.5361 7.83008 45.139 7.76172 44.6767 7.76172C44.2796 7.76172 43.928 7.83008 43.622 7.9668C43.316 8.10352 43.0589 8.29232 42.8505 8.5332C42.6422 8.76758 42.4827 9.03776 42.372 9.34375C42.2679 9.64974 42.2158 9.97526 42.2158 10.3203ZM53.6462 2V17H51.8298V2H53.6462ZM56.2681 11.834V11.6094C56.2681 10.8477 56.3788 10.1413 56.6002 9.49023C56.8215 8.83268 57.1405 8.26302 57.5572 7.78125C57.9738 7.29297 58.4784 6.91536 59.0709 6.64844C59.6633 6.375 60.3274 6.23828 61.063 6.23828C61.8052 6.23828 62.4725 6.375 63.065 6.64844C63.664 6.91536 64.1718 7.29297 64.5884 7.78125C65.0116 8.26302 65.3339 8.83268 65.5552 9.49023C65.7766 10.1413 65.8873 10.8477 65.8873 11.6094V11.834C65.8873 12.5957 65.7766 13.3021 65.5552 13.9531C65.3339 14.6042 65.0116 15.1738 64.5884 15.6621C64.1718 16.1439 63.6672 16.5215 63.0748 16.7949C62.4888 17.0618 61.8248 17.1953 61.0826 17.1953C60.3404 17.1953 59.6731 17.0618 59.0806 16.7949C58.4882 16.5215 57.9804 16.1439 57.5572 15.6621C57.1405 15.1738 56.8215 14.6042 56.6002 13.9531C56.3788 13.3021 56.2681 12.5957 56.2681 11.834ZM58.0748 11.6094V11.834C58.0748 12.3613 58.1366 12.8594 58.2603 13.3281C58.384 13.7904 58.5696 14.2005 58.8169 14.5586C59.0709 14.9167 59.3866 15.1999 59.7642 15.4082C60.1418 15.61 60.5813 15.7109 61.0826 15.7109C61.5774 15.7109 62.0103 15.61 62.3814 15.4082C62.759 15.1999 63.0715 14.9167 63.3189 14.5586C63.5663 14.2005 63.7518 13.7904 63.8755 13.3281C64.0058 12.8594 64.0709 12.3613 64.0709 11.834V11.6094C64.0709 11.0885 64.0058 10.597 63.8755 10.1348C63.7518 9.66602 63.563 9.2526 63.3091 8.89453C63.0617 8.52995 62.7492 8.24349 62.3716 8.03516C62.0005 7.82682 61.5643 7.72266 61.063 7.72266C60.5683 7.72266 60.1321 7.82682 59.7544 8.03516C59.3834 8.24349 59.0709 8.52995 58.8169 8.89453C58.5696 9.2526 58.384 9.66602 58.2603 10.1348C58.1366 10.597 58.0748 11.0885 58.0748 11.6094ZM71.1654 15.9062L74.1048 6.43359H76.0384L71.8002 18.6309C71.7025 18.8913 71.5723 19.1712 71.4095 19.4707C71.2533 19.7767 71.0515 20.0664 70.8041 20.3398C70.5567 20.6133 70.2572 20.8346 69.9056 21.0039C69.5606 21.1797 69.1472 21.2676 68.6654 21.2676C68.5222 21.2676 68.3399 21.248 68.1185 21.209C67.8972 21.1699 67.7409 21.1374 67.6498 21.1113L67.64 19.6465C67.6921 19.653 67.7735 19.6595 67.8841 19.666C68.0013 19.679 68.0827 19.6855 68.1283 19.6855C68.5384 19.6855 68.8867 19.6302 69.1732 19.5195C69.4597 19.4154 69.7005 19.2363 69.8959 18.9824C70.0977 18.735 70.2702 18.3932 70.4134 17.957L71.1654 15.9062ZM69.0072 6.43359L71.7513 14.6367L72.2201 16.541L70.9212 17.2051L67.0345 6.43359H69.0072ZM82.1173 17.1953C81.3817 17.1953 80.7143 17.0716 80.1154 16.8242C79.5229 16.5703 79.0119 16.2155 78.5822 15.7598C78.159 15.304 77.8335 14.7637 77.6056 14.1387C77.3778 13.5137 77.2638 12.8301 77.2638 12.0879V11.6777C77.2638 10.8184 77.3908 10.0534 77.6447 9.38281C77.8986 8.70573 78.2436 8.13281 78.6798 7.66406C79.116 7.19531 79.6108 6.84049 80.1642 6.59961C80.7176 6.35872 81.2905 6.23828 81.883 6.23828C82.6382 6.23828 83.2892 6.36849 83.8361 6.62891C84.3895 6.88932 84.8419 7.25391 85.1935 7.72266C85.5451 8.1849 85.8055 8.73177 85.9748 9.36328C86.144 9.98828 86.2287 10.6719 86.2287 11.4141V12.2246H78.338V10.75H84.422V10.6133C84.396 10.1445 84.2983 9.6888 84.1291 9.24609C83.9663 8.80339 83.7059 8.4388 83.3478 8.15234C82.9897 7.86589 82.5015 7.72266 81.883 7.72266C81.4728 7.72266 81.0952 7.81055 80.7502 7.98633C80.4051 8.1556 80.1089 8.40951 79.8615 8.74805C79.6141 9.08659 79.422 9.5 79.2853 9.98828C79.1486 10.4766 79.0802 11.0397 79.0802 11.6777V12.0879C79.0802 12.5892 79.1486 13.0612 79.2853 13.5039C79.4285 13.9401 79.6336 14.3242 79.9005 14.6562C80.174 14.9883 80.5028 15.2487 80.8869 15.4375C81.2775 15.6263 81.7202 15.7207 82.215 15.7207C82.853 15.7207 83.3934 15.5905 83.8361 15.3301C84.2788 15.0697 84.6662 14.7214 84.9982 14.2852L86.0919 15.1543C85.8641 15.4993 85.5744 15.8281 85.2228 16.1406C84.8712 16.4531 84.4383 16.707 83.924 16.9023C83.4162 17.0977 82.814 17.1953 82.1173 17.1953ZM92.9228 17.1953C92.1871 17.1953 91.5198 17.0716 90.9209 16.8242C90.3284 16.5703 89.8173 16.2155 89.3876 15.7598C88.9645 15.304 88.639 14.7637 88.4111 14.1387C88.1832 13.5137 88.0693 12.8301 88.0693 12.0879V11.6777C88.0693 10.8184 88.1962 10.0534 88.4501 9.38281C88.7041 8.70573 89.0491 8.13281 89.4853 7.66406C89.9215 7.19531 90.4163 6.84049 90.9697 6.59961C91.5231 6.35872 92.096 6.23828 92.6884 6.23828C93.4436 6.23828 94.0947 6.36849 94.6416 6.62891C95.1949 6.88932 95.6474 7.25391 95.999 7.72266C96.3505 8.1849 96.611 8.73177 96.7802 9.36328C96.9495 9.98828 97.0341 10.6719 97.0341 11.4141V12.2246H89.1435V10.75H95.2275V10.6133C95.2015 10.1445 95.1038 9.6888 94.9345 9.24609C94.7718 8.80339 94.5113 8.4388 94.1533 8.15234C93.7952 7.86589 93.3069 7.72266 92.6884 7.72266C92.2783 7.72266 91.9007 7.81055 91.5556 7.98633C91.2106 8.1556 90.9143 8.40951 90.6669 8.74805C90.4196 9.08659 90.2275 9.5 90.0908 9.98828C89.9541 10.4766 89.8857 11.0397 89.8857 11.6777V12.0879C89.8857 12.5892 89.9541 13.0612 90.0908 13.5039C90.234 13.9401 90.4391 14.3242 90.706 14.6562C90.9794 14.9883 91.3082 15.2487 91.6923 15.4375C92.083 15.6263 92.5257 15.7207 93.0205 15.7207C93.6585 15.7207 94.1988 15.5905 94.6416 15.3301C95.0843 15.0697 95.4716 14.7214 95.8037 14.2852L96.8974 15.1543C96.6696 15.4993 96.3798 15.8281 96.0283 16.1406C95.6767 16.4531 95.2438 16.707 94.7294 16.9023C94.2216 17.0977 93.6194 17.1953 92.9228 17.1953ZM105.496 14.1973C105.496 13.9368 105.437 13.696 105.32 13.4746C105.209 13.2467 104.978 13.0417 104.627 12.8594C104.282 12.6706 103.761 12.5078 103.064 12.3711C102.478 12.2474 101.948 12.1009 101.472 11.9316C101.004 11.7624 100.603 11.5573 100.271 11.3164C99.9457 11.0755 99.6951 10.7923 99.5193 10.4668C99.3435 10.1413 99.2556 9.76042 99.2556 9.32422C99.2556 8.90755 99.3468 8.51367 99.5291 8.14258C99.7179 7.77148 99.9815 7.44271 100.32 7.15625C100.665 6.86979 101.079 6.64518 101.56 6.48242C102.042 6.31966 102.579 6.23828 103.172 6.23828C104.018 6.23828 104.741 6.38802 105.34 6.6875C105.939 6.98698 106.398 7.38737 106.717 7.88867C107.036 8.38346 107.195 8.93359 107.195 9.53906H105.388C105.388 9.24609 105.301 8.96289 105.125 8.68945C104.955 8.40951 104.705 8.17839 104.373 7.99609C104.047 7.8138 103.647 7.72266 103.172 7.72266C102.67 7.72266 102.263 7.80078 101.951 7.95703C101.645 8.10677 101.42 8.29883 101.277 8.5332C101.14 8.76758 101.072 9.01497 101.072 9.27539C101.072 9.4707 101.105 9.64648 101.17 9.80273C101.241 9.95247 101.365 10.0924 101.541 10.2227C101.717 10.3464 101.964 10.4635 102.283 10.5742C102.602 10.6849 103.009 10.7956 103.504 10.9062C104.37 11.1016 105.082 11.3359 105.642 11.6094C106.202 11.8828 106.619 12.2181 106.892 12.6152C107.166 13.0124 107.302 13.4941 107.302 14.0605C107.302 14.5228 107.205 14.946 107.01 15.3301C106.821 15.7142 106.544 16.0462 106.179 16.3262C105.821 16.5996 105.392 16.8145 104.89 16.9707C104.396 17.1204 103.839 17.1953 103.22 17.1953C102.289 17.1953 101.502 17.0293 100.857 16.6973C100.213 16.3652 99.7244 15.9355 99.3923 15.4082C99.0603 14.8809 98.8943 14.3242 98.8943 13.7383H100.711C100.737 14.2331 100.88 14.627 101.14 14.9199C101.401 15.2064 101.72 15.4115 102.097 15.5352C102.475 15.6523 102.849 15.7109 103.22 15.7109C103.715 15.7109 104.129 15.6458 104.461 15.5156C104.799 15.3854 105.056 15.2064 105.232 14.9785C105.408 14.7507 105.496 14.4902 105.496 14.1973Z" fill="#0A2632" fill-opacity="0.7"/>
<path d="M6.49597 8.16438C6.41532 8.1563 6.31855 8.1563 6.22984 8.16438C5.3042 8.13291 4.42713 7.74185 3.78438 7.07403C3.14163 6.40621 2.78366 5.51406 2.78629 4.58652C2.78629 2.60779 4.38306 1.00058 6.36694 1.00058C6.83662 0.992098 7.30338 1.07634 7.74056 1.24851C8.17773 1.42068 8.57677 1.6774 8.91488 2.00401C9.25299 2.33062 9.52355 2.72073 9.71112 3.15205C9.89869 3.58338 9.99959 4.04749 10.0081 4.51787C10.0165 4.98825 9.93242 5.4557 9.7605 5.89352C9.58859 6.33134 9.33225 6.73097 9.00612 7.06958C8.67999 7.40819 8.29046 7.67915 7.85977 7.867C7.42907 8.05484 6.96566 8.1559 6.49597 8.16438ZM2.46371 11.1446C0.512097 12.453 0.512097 14.5851 2.46371 15.8855C4.68145 17.3715 8.31855 17.3715 10.5363 15.8855C12.4879 14.5771 12.4879 12.4449 10.5363 11.1446C8.32661 9.6666 4.68952 9.6666 2.46371 11.1446Z" stroke="#0A2632" stroke-opacity="0.7" stroke-width="1.28006" stroke-linecap="round" stroke-linejoin="round"/>
</g>
</svg>
