<svg width="67" height="44" viewBox="0 0 67 44" fill="none" xmlns="http://www.w3.org/2000/svg">
<path d="M29.3507 4.91697C30.4571 4.58632 31.678 4.37012 33.026 4.37012C39.1177 4.37012 44.052 9.30449 44.052 15.3961C44.052 21.4878 39.1177 26.4222 33.026 26.4222C26.9344 26.4222 22 21.4878 22 15.3961C22 13.1324 22.6867 11.0213 23.8567 9.26634M31.4491 1L27.7737 5.22219L32.0595 8.35068" stroke="white" stroke-opacity="0.7" stroke-width="1.90762" stroke-linecap="round" stroke-linejoin="round"/>
<path d="M26.6777 13.3265L29.7681 18.7348C30.1753 19.4474 31.1226 19.628 31.7634 19.1154L40.2075 12.3601" stroke="white" stroke-opacity="0.7" stroke-width="1.93283" stroke-linecap="round"/>
<path d="M0.572559 35.336H2.96409C3.45444 35.336 3.87578 35.4094 4.22813 35.5562C4.58341 35.703 4.85647 35.9203 5.04732 36.2081C5.23818 36.4958 5.3336 36.8496 5.3336 37.2695C5.3336 37.613 5.27488 37.9081 5.15743 38.1548C5.04292 38.3985 4.87996 38.6025 4.66855 38.7669C4.46008 38.9284 4.21491 39.0576 3.93304 39.1545L3.51463 39.3747H1.4358L1.42699 38.3441H2.9729C3.20486 38.3441 3.39718 38.303 3.54986 38.2208C3.70255 38.1386 3.81706 38.0241 3.8934 37.8773C3.97268 37.7305 4.01231 37.5602 4.01231 37.3664C4.01231 37.1608 3.97414 36.9832 3.8978 36.8335C3.82146 36.6837 3.70548 36.5692 3.54986 36.4899C3.39424 36.4106 3.19899 36.371 2.96409 36.371H1.89385V41.7487H0.572559V35.336ZM4.15766 41.7487L2.69543 38.8903L4.09159 38.8815L5.57144 41.687V41.7487H4.15766ZM8.64546 41.8367C8.2755 41.8367 7.94371 41.778 7.65009 41.6606C7.35647 41.5402 7.10689 41.3743 6.90136 41.1629C6.69876 40.9515 6.54314 40.7063 6.4345 40.4274C6.32586 40.1455 6.27154 39.846 6.27154 39.5289V39.3527C6.27154 38.9916 6.32293 38.6612 6.42569 38.3618C6.52846 38.0623 6.67527 37.8024 6.86612 37.5822C7.05991 37.362 7.29481 37.1931 7.57081 37.0757C7.84681 36.9553 8.15805 36.8951 8.50452 36.8951C8.84218 36.8951 9.14168 36.9509 9.403 37.0625C9.66432 37.1741 9.88307 37.3326 10.0592 37.5381C10.2383 37.7437 10.3734 37.9903 10.4644 38.2781C10.5555 38.5629 10.601 38.88 10.601 39.2294V39.7579H6.81327V38.9123H9.35455V38.8154C9.35455 38.6392 9.32225 38.4821 9.25766 38.3441C9.196 38.2032 9.10204 38.0916 8.97578 38.0094C8.84952 37.9272 8.68803 37.8861 8.49131 37.8861C8.32395 37.8861 8.18007 37.9228 8.05969 37.9962C7.9393 38.0696 7.84094 38.1724 7.7646 38.3045C7.69119 38.4366 7.63541 38.5922 7.59724 38.7714C7.562 38.9475 7.54438 39.1413 7.54438 39.3527V39.5289C7.54438 39.7197 7.57081 39.8959 7.62366 40.0574C7.67945 40.2189 7.75726 40.3584 7.85709 40.4758C7.95986 40.5933 8.08318 40.6843 8.22705 40.7489C8.37386 40.8135 8.53976 40.8458 8.72474 40.8458C8.95376 40.8458 9.16663 40.8017 9.36336 40.7136C9.56302 40.6226 9.73479 40.4861 9.87866 40.304L10.4953 40.9735C10.3954 41.1174 10.2589 41.2554 10.0857 41.3875C9.91536 41.5196 9.70983 41.6283 9.46906 41.7134C9.22829 41.7956 8.95376 41.8367 8.64546 41.8367ZM13.4724 40.8458C13.628 40.8458 13.766 40.8164 13.8864 40.7577C14.0068 40.696 14.1007 40.6109 14.1683 40.5022C14.2387 40.3907 14.2754 40.26 14.2784 40.1103H15.4719C15.469 40.445 15.3795 40.743 15.2033 41.0043C15.0271 41.2627 14.7907 41.4668 14.4942 41.6165C14.1976 41.7633 13.8658 41.8367 13.4988 41.8367C13.1289 41.8367 12.8059 41.7751 12.5299 41.6518C12.2568 41.5284 12.0293 41.3581 11.8472 41.1409C11.6652 40.9206 11.5286 40.6652 11.4376 40.3745C11.3466 40.0809 11.3011 39.7667 11.3011 39.432V39.3043C11.3011 38.9666 11.3466 38.6524 11.4376 38.3618C11.5286 38.0681 11.6652 37.8127 11.8472 37.5954C12.0293 37.3752 12.2568 37.2034 12.5299 37.0801C12.8029 36.9568 13.123 36.8951 13.49 36.8951C13.8805 36.8951 14.2226 36.97 14.5162 37.1197C14.8128 37.2695 15.0447 37.4838 15.2121 37.7628C15.3824 38.0388 15.469 38.3662 15.4719 38.7449H14.2784C14.2754 38.5864 14.2417 38.4425 14.1771 38.3133C14.1154 38.1841 14.0244 38.0813 13.904 38.005C13.7866 37.9257 13.6412 37.8861 13.468 37.8861C13.283 37.8861 13.1318 37.9257 13.0143 38.005C12.8969 38.0813 12.8059 38.187 12.7413 38.3221C12.6767 38.4542 12.6312 38.6055 12.6047 38.7758C12.5813 38.9431 12.5695 39.1193 12.5695 39.3043V39.432C12.5695 39.617 12.5813 39.7946 12.6047 39.9649C12.6282 40.1352 12.6723 40.2864 12.7369 40.4186C12.8044 40.5507 12.8969 40.6549 13.0143 40.7313C13.1318 40.8076 13.2845 40.8458 13.4724 40.8458ZM18.5812 41.8367C18.2112 41.8367 17.8794 41.778 17.5858 41.6606C17.2922 41.5402 17.0426 41.3743 16.8371 41.1629C16.6345 40.9515 16.4789 40.7063 16.3702 40.4274C16.2616 40.1455 16.2073 39.846 16.2073 39.5289V39.3527C16.2073 38.9916 16.2587 38.6612 16.3614 38.3618C16.4642 38.0623 16.611 37.8024 16.8019 37.5822C16.9957 37.362 17.2305 37.1931 17.5066 37.0757C17.7826 36.9553 18.0938 36.8951 18.4403 36.8951C18.7779 36.8951 19.0774 36.9509 19.3387 37.0625C19.6001 37.1741 19.8188 37.3326 19.995 37.5381C20.1741 37.7437 20.3092 37.9903 20.4002 38.2781C20.4912 38.5629 20.5367 38.88 20.5367 39.2294V39.7579H16.749V38.9123H19.2903V38.8154C19.2903 38.6392 19.258 38.4821 19.1934 38.3441C19.1317 38.2032 19.0378 38.0916 18.9115 38.0094C18.7853 37.9272 18.6238 37.8861 18.427 37.8861C18.2597 37.8861 18.1158 37.9228 17.9954 37.9962C17.875 38.0696 17.7767 38.1724 17.7003 38.3045C17.6269 38.4366 17.5711 38.5922 17.533 38.7714C17.4977 38.9475 17.4801 39.1413 17.4801 39.3527V39.5289C17.4801 39.7197 17.5066 39.8959 17.5594 40.0574C17.6152 40.2189 17.693 40.3584 17.7928 40.4758C17.8956 40.5933 18.0189 40.6843 18.1628 40.7489C18.3096 40.8135 18.4755 40.8458 18.6605 40.8458C18.8895 40.8458 19.1024 40.8017 19.2991 40.7136C19.4988 40.6226 19.6705 40.4861 19.8144 40.304L20.431 40.9735C20.3312 41.1174 20.1946 41.2554 20.0214 41.3875C19.8511 41.5196 19.6456 41.6283 19.4048 41.7134C19.164 41.7956 18.8895 41.8367 18.5812 41.8367ZM22.6814 38.0006V41.7487H21.413V36.9832H22.6021L22.6814 38.0006ZM22.4964 39.1986H22.1529C22.1529 38.8462 22.1984 38.5291 22.2894 38.2472C22.3805 37.9624 22.5082 37.7202 22.6726 37.5205C22.837 37.3179 23.0323 37.1638 23.2584 37.0581C23.4874 36.9494 23.7429 36.8951 24.0247 36.8951C24.2479 36.8951 24.452 36.9274 24.6369 36.992C24.8219 37.0566 24.9805 37.1594 25.1126 37.3003C25.2477 37.4413 25.3504 37.6277 25.4209 37.8597C25.4943 38.0916 25.531 38.375 25.531 38.7097V41.7487H24.2538V38.7053C24.2538 38.4939 24.2244 38.3295 24.1657 38.212C24.1069 38.0946 24.0203 38.0123 23.9058 37.9654C23.7942 37.9155 23.6562 37.8905 23.4918 37.8905C23.3215 37.8905 23.1732 37.9243 23.047 37.9918C22.9237 38.0593 22.8209 38.1533 22.7387 38.2737C22.6594 38.3911 22.5992 38.5291 22.5581 38.6877C22.517 38.8462 22.4964 39.0165 22.4964 39.1986ZM29.0102 36.9832V37.8817H26.2355V36.9832H29.0102ZM26.9226 35.8073H28.191V40.3129C28.191 40.4509 28.2086 40.5566 28.2439 40.63C28.282 40.7034 28.3378 40.7548 28.4112 40.7841C28.4846 40.8105 28.5771 40.8238 28.6887 40.8238C28.768 40.8238 28.8385 40.8208 28.9001 40.8149C28.9647 40.8061 29.019 40.7973 29.0631 40.7885L29.0675 41.7222C28.9588 41.7575 28.8414 41.7854 28.7151 41.8059C28.5889 41.8265 28.4494 41.8367 28.2967 41.8367C28.0178 41.8367 27.7741 41.7912 27.5656 41.7002C27.3601 41.6063 27.2015 41.4565 27.09 41.251C26.9784 41.0454 26.9226 40.7753 26.9226 40.4406V35.8073ZM35.9599 35.336H37.2767V39.5729C37.2767 40.0662 37.171 40.4817 36.9596 40.8194C36.7512 41.157 36.4619 41.411 36.092 41.5813C35.725 41.7516 35.3021 41.8367 34.8235 41.8367C34.3449 41.8367 33.9192 41.7516 33.5463 41.5813C33.1763 41.411 32.8857 41.157 32.6742 40.8194C32.4658 40.4817 32.3615 40.0662 32.3615 39.5729V35.336H33.6828V39.5729C33.6828 39.8607 33.7283 40.0956 33.8194 40.2776C33.9104 40.4597 34.041 40.5933 34.2113 40.6784C34.3846 40.7636 34.5886 40.8061 34.8235 40.8061C35.0643 40.8061 35.2684 40.7636 35.4357 40.6784C35.606 40.5933 35.7352 40.4597 35.8233 40.2776C35.9143 40.0956 35.9599 39.8607 35.9599 39.5729V35.336ZM39.7342 37.8993V43.5808H38.4657V36.9832H39.6417L39.7342 37.8993ZM42.7511 39.3131V39.4056C42.7511 39.752 42.71 40.0736 42.6278 40.3701C42.5485 40.6667 42.4311 40.9251 42.2754 41.1453C42.1198 41.3625 41.926 41.5328 41.6941 41.6562C41.465 41.7766 41.2008 41.8367 40.9013 41.8367C40.6106 41.8367 40.3581 41.778 40.1438 41.6606C39.9294 41.5431 39.7488 41.3787 39.602 41.1673C39.4582 40.9529 39.3422 40.7048 39.2541 40.423C39.166 40.1411 39.0985 39.8387 39.0515 39.5157V39.2734C39.0985 38.927 39.166 38.6099 39.2541 38.3221C39.3422 38.0314 39.4582 37.7804 39.602 37.569C39.7488 37.3546 39.9279 37.1887 40.1394 37.0713C40.3537 36.9538 40.6047 36.8951 40.8925 36.8951C41.1949 36.8951 41.4606 36.9524 41.6897 37.0669C41.9216 37.1814 42.1154 37.3458 42.271 37.5602C42.4296 37.7745 42.5485 38.03 42.6278 38.3265C42.71 38.6231 42.7511 38.9519 42.7511 39.3131ZM41.4783 39.4056V39.3131C41.4783 39.1105 41.4606 38.924 41.4254 38.7537C41.3931 38.5805 41.3403 38.4293 41.2669 38.3001C41.1964 38.1709 41.1024 38.0711 40.985 38.0006C40.8705 37.9272 40.731 37.8905 40.5666 37.8905C40.3933 37.8905 40.2451 37.9184 40.1217 37.9742C40.0014 38.03 39.903 38.1107 39.8266 38.2164C39.7503 38.3221 39.6931 38.4484 39.6549 38.5952C39.6167 38.742 39.5932 38.9079 39.5844 39.0929V39.7051C39.5991 39.9223 39.6402 40.1176 39.7077 40.2908C39.7753 40.4611 39.8795 40.5962 40.0204 40.696C40.1614 40.7959 40.3464 40.8458 40.5754 40.8458C40.7427 40.8458 40.8837 40.8091 40.9982 40.7357C41.1127 40.6593 41.2052 40.5551 41.2757 40.423C41.3491 40.2908 41.4005 40.1382 41.4298 39.9649C41.4621 39.7917 41.4783 39.6052 41.4783 39.4056ZM46.5342 40.7092V34.9837H47.8115V41.7487H46.6619L46.5342 40.7092ZM43.5217 39.4232V39.3307C43.5217 38.9666 43.5628 38.6363 43.645 38.3397C43.7272 38.0402 43.8476 37.7833 44.0061 37.569C44.1647 37.3546 44.36 37.1887 44.5919 37.0713C44.8239 36.9538 45.0881 36.8951 45.3847 36.8951C45.6636 36.8951 45.9073 36.9538 46.1158 37.0713C46.3272 37.1887 46.5063 37.3561 46.6531 37.5734C46.8029 37.7877 46.9233 38.0417 47.0143 38.3353C47.1053 38.626 47.1714 38.9446 47.2125 39.2911V39.4937C47.1714 39.8254 47.1053 40.1337 47.0143 40.4186C46.9233 40.7034 46.8029 40.9529 46.6531 41.1673C46.5063 41.3787 46.3272 41.5431 46.1158 41.6606C45.9044 41.778 45.6578 41.8367 45.3759 41.8367C45.0793 41.8367 44.8151 41.7766 44.5831 41.6562C44.3541 41.5358 44.1603 41.367 44.0017 41.1497C43.8461 40.9324 43.7272 40.6769 43.645 40.3833C43.5628 40.0897 43.5217 39.7697 43.5217 39.4232ZM44.7901 39.3307V39.4232C44.7901 39.6199 44.8048 39.8034 44.8342 39.9737C44.8665 40.144 44.9178 40.2952 44.9883 40.4274C45.0617 40.5566 45.1557 40.6579 45.2702 40.7313C45.3876 40.8017 45.53 40.837 45.6974 40.837C45.9147 40.837 46.0938 40.7885 46.2347 40.6916C46.3757 40.5918 46.4828 40.4553 46.5562 40.282C46.6326 40.1088 46.6766 39.9091 46.6884 39.683V39.1061C46.6796 38.9211 46.6531 38.7552 46.6091 38.6084C46.568 38.4586 46.5063 38.3309 46.4241 38.2252C46.3448 38.1195 46.245 38.0373 46.1246 37.9786C46.0072 37.9199 45.8677 37.8905 45.7062 37.8905C45.5418 37.8905 45.4008 37.9287 45.2834 38.005C45.1659 38.0784 45.0705 38.1797 44.9971 38.3089C44.9266 38.4381 44.8738 38.5908 44.8386 38.7669C44.8063 38.9402 44.7901 39.1281 44.7901 39.3307ZM51.5549 40.674V38.5511C51.5549 38.3985 51.53 38.2678 51.4801 38.1592C51.4302 38.0476 51.3523 37.961 51.2466 37.8993C51.1439 37.8376 51.0103 37.8068 50.8458 37.8068C50.7049 37.8068 50.5831 37.8318 50.4803 37.8817C50.3775 37.9287 50.2982 37.9977 50.2425 38.0887C50.1867 38.1768 50.1588 38.281 50.1588 38.4014H48.8903C48.8903 38.1988 48.9373 38.0065 49.0313 37.8244C49.1252 37.6424 49.2618 37.4824 49.4409 37.3444C49.62 37.2034 49.8329 37.0933 50.0795 37.014C50.3291 36.9348 50.608 36.8951 50.9163 36.8951C51.2863 36.8951 51.6151 36.9568 51.9029 37.0801C52.1906 37.2034 52.4167 37.3884 52.5811 37.635C52.7485 37.8817 52.8322 38.19 52.8322 38.5599V40.5991C52.8322 40.8605 52.8483 41.0748 52.8806 41.2422C52.9129 41.4066 52.9599 41.5505 53.0216 41.6738V41.7487H51.7399C51.6783 41.6195 51.6313 41.458 51.599 41.2642C51.5696 41.0675 51.5549 40.8707 51.5549 40.674ZM51.7223 38.8462L51.7311 39.5641H51.022C50.8547 39.5641 50.7093 39.5832 50.586 39.6214C50.4627 39.6596 50.3614 39.7139 50.2821 39.7843C50.2028 39.8519 50.1441 39.9312 50.1059 40.0222C50.0707 40.1132 50.0531 40.213 50.0531 40.3217C50.0531 40.4303 50.078 40.5287 50.1279 40.6168C50.1779 40.7019 50.2498 40.7694 50.3438 40.8194C50.4377 40.8663 50.5478 40.8898 50.6741 40.8898C50.8649 40.8898 51.0308 40.8516 51.1718 40.7753C51.3127 40.699 51.4213 40.605 51.4977 40.4934C51.577 40.3819 51.6181 40.2762 51.621 40.1763L51.9557 40.7136C51.9088 40.834 51.8442 40.9588 51.7619 41.088C51.6827 41.2172 51.5814 41.3391 51.458 41.4536C51.3347 41.5651 51.1864 41.6576 51.0132 41.731C50.84 41.8015 50.6344 41.8367 50.3966 41.8367C50.0942 41.8367 49.8196 41.7766 49.573 41.6562C49.3293 41.5328 49.1355 41.364 48.9916 41.1497C48.8507 40.9324 48.7802 40.6858 48.7802 40.4098C48.7802 40.1602 48.8272 39.9385 48.9212 39.7447C49.0151 39.5509 49.1531 39.388 49.3352 39.2558C49.5202 39.1208 49.7506 39.0195 50.0266 38.9519C50.3027 38.8815 50.6227 38.8462 50.9868 38.8462H51.7223ZM56.3246 36.9832V37.8817H53.5499V36.9832H56.3246ZM54.237 35.8073H55.5054V40.3129C55.5054 40.4509 55.523 40.5566 55.5583 40.63C55.5964 40.7034 55.6522 40.7548 55.7256 40.7841C55.799 40.8105 55.8915 40.8238 56.0031 40.8238C56.0824 40.8238 56.1529 40.8208 56.2145 40.8149C56.2791 40.8061 56.3334 40.7973 56.3775 40.7885L56.3819 41.7222C56.2732 41.7575 56.1558 41.7854 56.0295 41.8059C55.9033 41.8265 55.7638 41.8367 55.6111 41.8367C55.3322 41.8367 55.0885 41.7912 54.88 41.7002C54.6745 41.6063 54.5159 41.4565 54.4043 41.251C54.2928 41.0454 54.237 40.7753 54.237 40.4406V35.8073ZM59.4207 41.8367C59.0507 41.8367 58.7189 41.778 58.4253 41.6606C58.1317 41.5402 57.8821 41.3743 57.6766 41.1629C57.474 40.9515 57.3183 40.7063 57.2097 40.4274C57.1011 40.1455 57.0467 39.846 57.0467 39.5289V39.3527C57.0467 38.9916 57.0981 38.6612 57.2009 38.3618C57.3037 38.0623 57.4505 37.8024 57.6413 37.5822C57.8351 37.362 58.07 37.1931 58.346 37.0757C58.622 36.9553 58.9333 36.8951 59.2797 36.8951C59.6174 36.8951 59.9169 36.9509 60.1782 37.0625C60.4395 37.1741 60.6583 37.3326 60.8344 37.5381C61.0135 37.7437 61.1486 37.9903 61.2396 38.2781C61.3307 38.5629 61.3762 38.88 61.3762 39.2294V39.7579H57.5885V38.9123H60.1298V38.8154C60.1298 38.6392 60.0975 38.4821 60.0329 38.3441C59.9712 38.2032 59.8772 38.0916 59.751 38.0094C59.6247 37.9272 59.4632 37.8861 59.2665 37.8861C59.0991 37.8861 58.9553 37.9228 58.8349 37.9962C58.7145 38.0696 58.6161 38.1724 58.5398 38.3045C58.4664 38.4366 58.4106 38.5922 58.3724 38.7714C58.3372 38.9475 58.3196 39.1413 58.3196 39.3527V39.5289C58.3196 39.7197 58.346 39.8959 58.3989 40.0574C58.4547 40.2189 58.5325 40.3584 58.6323 40.4758C58.7351 40.5933 58.8584 40.6843 59.0023 40.7489C59.1491 40.8135 59.315 40.8458 59.4999 40.8458C59.729 40.8458 59.9418 40.8017 60.1386 40.7136C60.3382 40.6226 60.51 40.4861 60.6539 40.304L61.2705 40.9735C61.1706 41.1174 61.0341 41.2554 60.8609 41.3875C60.6906 41.5196 60.485 41.6283 60.2443 41.7134C60.0035 41.7956 59.729 41.8367 59.4207 41.8367ZM64.8554 40.4318C64.8554 40.3408 64.829 40.2585 64.7761 40.1851C64.7233 40.1117 64.6249 40.0442 64.481 39.9825C64.3401 39.9179 64.136 39.8592 63.8688 39.8064C63.6281 39.7535 63.4034 39.6874 63.195 39.6082C62.9894 39.526 62.8103 39.4276 62.6576 39.3131C62.5079 39.1986 62.3905 39.0635 62.3053 38.9079C62.2202 38.7493 62.1776 38.5688 62.1776 38.3662C62.1776 38.1665 62.2202 37.9786 62.3053 37.8024C62.3934 37.6262 62.5182 37.4706 62.6797 37.3356C62.8441 37.1976 63.0438 37.0904 63.2787 37.014C63.5165 36.9348 63.7837 36.8951 64.0802 36.8951C64.4942 36.8951 64.8495 36.9612 65.1461 37.0933C65.4456 37.2254 65.6746 37.4075 65.8331 37.6394C65.9946 37.8685 66.0754 38.1298 66.0754 38.4234H64.8069C64.8069 38.3001 64.7805 38.19 64.7277 38.0931C64.6778 37.9933 64.5985 37.9155 64.4898 37.8597C64.3841 37.8009 64.2461 37.7716 64.0758 37.7716C63.9349 37.7716 63.813 37.7965 63.7103 37.8464C63.6075 37.8934 63.5282 37.958 63.4724 38.0402C63.4196 38.1195 63.3932 38.2076 63.3932 38.3045C63.3932 38.3779 63.4078 38.444 63.4372 38.5027C63.4695 38.5585 63.5209 38.6099 63.5914 38.6568C63.6618 38.7038 63.7528 38.7479 63.8644 38.789C63.9789 38.8271 64.1199 38.8624 64.2872 38.8947C64.6308 38.9651 64.9376 39.0576 65.2077 39.1721C65.4779 39.2837 65.6922 39.4364 65.8508 39.6302C66.0093 39.821 66.0886 40.0721 66.0886 40.3833C66.0886 40.5947 66.0416 40.7885 65.9477 40.9647C65.8537 41.1409 65.7186 41.295 65.5425 41.4271C65.3663 41.5563 65.1549 41.6576 64.9082 41.731C64.6645 41.8015 64.39 41.8367 64.0846 41.8367C63.6413 41.8367 63.2654 41.7575 62.9571 41.5989C62.6518 41.4404 62.4198 41.2392 62.2613 40.9955C62.1056 40.7489 62.0278 40.4964 62.0278 40.238H63.2302C63.2361 40.4112 63.2801 40.5507 63.3623 40.6564C63.4475 40.7621 63.5547 40.8384 63.6838 40.8854C63.816 40.9324 63.9584 40.9559 64.1111 40.9559C64.2755 40.9559 64.412 40.9339 64.5207 40.8898C64.6293 40.8428 64.7115 40.7812 64.7673 40.7048C64.826 40.6256 64.8554 40.5345 64.8554 40.4318Z" fill="white" fill-opacity="0.7"/>
</svg>
