<svg width="141" height="21" viewBox="0 0 141 21" fill="none" xmlns="http://www.w3.org/2000/svg">
<g opacity="0.7">
<path d="M37.9141 3.04102L33.207 16H31.2832L36.7031 1.78125H37.9434L37.9141 3.04102ZM41.8594 16L37.1426 3.04102L37.1133 1.78125H38.3535L43.793 16H41.8594ZM41.6152 10.7363V12.2793H33.627V10.7363H41.6152ZM47.4305 7.46484V20.0625H45.6141V5.43359H47.2742L47.4305 7.46484ZM54.5496 10.6289V10.834C54.5496 11.6022 54.4585 12.3151 54.2762 12.9727C54.0939 13.6237 53.827 14.1901 53.4754 14.6719C53.1303 15.1536 52.7039 15.528 52.1961 15.7949C51.6883 16.0618 51.1056 16.1953 50.448 16.1953C49.7775 16.1953 49.185 16.0846 48.6707 15.8633C48.1564 15.6419 47.7202 15.3197 47.3621 14.8965C47.004 14.4733 46.7176 13.9655 46.5027 13.373C46.2944 12.7806 46.1512 12.1133 46.073 11.3711V10.2773C46.1512 9.49609 46.2977 8.79622 46.5125 8.17773C46.7273 7.55924 47.0105 7.0319 47.3621 6.5957C47.7202 6.15299 48.1531 5.81771 48.6609 5.58984C49.1687 5.35547 49.7547 5.23828 50.4187 5.23828C51.0828 5.23828 51.672 5.36849 52.1863 5.62891C52.7007 5.88281 53.1336 6.2474 53.4852 6.72266C53.8367 7.19792 54.1004 7.76758 54.2762 8.43164C54.4585 9.08919 54.5496 9.82161 54.5496 10.6289ZM52.7332 10.834V10.6289C52.7332 10.1016 52.6779 9.60677 52.5672 9.14453C52.4565 8.67578 52.284 8.26562 52.0496 7.91406C51.8217 7.55599 51.5288 7.27604 51.1707 7.07422C50.8126 6.86589 50.3862 6.76172 49.8914 6.76172C49.4357 6.76172 49.0385 6.83984 48.7 6.99609C48.368 7.15234 48.0848 7.36393 47.8504 7.63086C47.616 7.89128 47.424 8.19076 47.2742 8.5293C47.131 8.86133 47.0236 9.20638 46.952 9.56445V12.0938C47.0822 12.5495 47.2645 12.9792 47.4988 13.3828C47.7332 13.7799 48.0457 14.1022 48.4363 14.3496C48.827 14.5905 49.3185 14.7109 49.9109 14.7109C50.3992 14.7109 50.8191 14.61 51.1707 14.4082C51.5288 14.1999 51.8217 13.9167 52.0496 13.5586C52.284 13.2005 52.4565 12.7904 52.5672 12.3281C52.6779 11.8594 52.7332 11.3613 52.7332 10.834ZM58.8609 7.46484V20.0625H57.0445V5.43359H58.7047L58.8609 7.46484ZM65.9801 10.6289V10.834C65.9801 11.6022 65.8889 12.3151 65.7066 12.9727C65.5243 13.6237 65.2574 14.1901 64.9059 14.6719C64.5608 15.1536 64.1344 15.528 63.6266 15.7949C63.1187 16.0618 62.5361 16.1953 61.8785 16.1953C61.2079 16.1953 60.6155 16.0846 60.1012 15.8633C59.5868 15.6419 59.1507 15.3197 58.7926 14.8965C58.4345 14.4733 58.148 13.9655 57.9332 13.373C57.7249 12.7806 57.5816 12.1133 57.5035 11.3711V10.2773C57.5816 9.49609 57.7281 8.79622 57.943 8.17773C58.1578 7.55924 58.441 7.0319 58.7926 6.5957C59.1507 6.15299 59.5836 5.81771 60.0914 5.58984C60.5992 5.35547 61.1852 5.23828 61.8492 5.23828C62.5133 5.23828 63.1025 5.36849 63.6168 5.62891C64.1311 5.88281 64.5641 6.2474 64.9156 6.72266C65.2672 7.19792 65.5309 7.76758 65.7066 8.43164C65.8889 9.08919 65.9801 9.82161 65.9801 10.6289ZM64.1637 10.834V10.6289C64.1637 10.1016 64.1083 9.60677 63.9977 9.14453C63.887 8.67578 63.7145 8.26562 63.4801 7.91406C63.2522 7.55599 62.9592 7.27604 62.6012 7.07422C62.2431 6.86589 61.8167 6.76172 61.3219 6.76172C60.8661 6.76172 60.469 6.83984 60.1305 6.99609C59.7984 7.15234 59.5152 7.36393 59.2809 7.63086C59.0465 7.89128 58.8544 8.19076 58.7047 8.5293C58.5615 8.86133 58.454 9.20638 58.3824 9.56445V12.0938C58.5126 12.5495 58.6949 12.9792 58.9293 13.3828C59.1637 13.7799 59.4762 14.1022 59.8668 14.3496C60.2574 14.5905 60.749 14.7109 61.3414 14.7109C61.8297 14.7109 62.2496 14.61 62.6012 14.4082C62.9592 14.1999 63.2522 13.9167 63.4801 13.5586C63.7145 13.2005 63.887 12.7904 63.9977 12.3281C64.1083 11.8594 64.1637 11.3613 64.1637 10.834ZM70.2914 7.09375V16H68.4848V5.43359H70.2426L70.2914 7.09375ZM73.5922 5.375L73.5824 7.05469C73.4327 7.02214 73.2895 7.0026 73.1527 6.99609C73.0225 6.98307 72.8728 6.97656 72.7035 6.97656C72.2868 6.97656 71.919 7.04167 71.6 7.17188C71.281 7.30208 71.0108 7.48438 70.7895 7.71875C70.5681 7.95312 70.3923 8.23307 70.2621 8.55859C70.1384 8.8776 70.057 9.22917 70.018 9.61328L69.5102 9.90625C69.5102 9.26823 69.572 8.66927 69.6957 8.10938C69.8259 7.54948 70.0245 7.05469 70.2914 6.625C70.5583 6.1888 70.8969 5.85026 71.307 5.60938C71.7237 5.36198 72.2185 5.23828 72.7914 5.23828C72.9216 5.23828 73.0714 5.25456 73.2406 5.28711C73.4099 5.31315 73.5271 5.34245 73.5922 5.375ZM74.7883 10.834V10.6094C74.7883 9.84766 74.899 9.14128 75.1203 8.49023C75.3417 7.83268 75.6607 7.26302 76.0773 6.78125C76.494 6.29297 76.9986 5.91536 77.591 5.64844C78.1835 5.375 78.8475 5.23828 79.5832 5.23828C80.3254 5.23828 80.9927 5.375 81.5852 5.64844C82.1841 5.91536 82.6919 6.29297 83.1086 6.78125C83.5318 7.26302 83.854 7.83268 84.0754 8.49023C84.2967 9.14128 84.4074 9.84766 84.4074 10.6094V10.834C84.4074 11.5957 84.2967 12.3021 84.0754 12.9531C83.854 13.6042 83.5318 14.1738 83.1086 14.6621C82.6919 15.1439 82.1874 15.5215 81.5949 15.7949C81.009 16.0618 80.3449 16.1953 79.6027 16.1953C78.8605 16.1953 78.1932 16.0618 77.6008 15.7949C77.0083 15.5215 76.5005 15.1439 76.0773 14.6621C75.6607 14.1738 75.3417 13.6042 75.1203 12.9531C74.899 12.3021 74.7883 11.5957 74.7883 10.834ZM76.5949 10.6094V10.834C76.5949 11.3613 76.6568 11.8594 76.7805 12.3281C76.9042 12.7904 77.0897 13.2005 77.3371 13.5586C77.591 13.9167 77.9068 14.1999 78.2844 14.4082C78.662 14.61 79.1014 14.7109 79.6027 14.7109C80.0975 14.7109 80.5305 14.61 80.9016 14.4082C81.2792 14.1999 81.5917 13.9167 81.8391 13.5586C82.0865 13.2005 82.272 12.7904 82.3957 12.3281C82.5259 11.8594 82.591 11.3613 82.591 10.834V10.6094C82.591 10.0885 82.5259 9.59701 82.3957 9.13477C82.272 8.66602 82.0832 8.2526 81.8293 7.89453C81.5819 7.52995 81.2694 7.24349 80.8918 7.03516C80.5207 6.82682 80.0845 6.72266 79.5832 6.72266C79.0884 6.72266 78.6522 6.82682 78.2746 7.03516C77.9035 7.24349 77.591 7.52995 77.3371 7.89453C77.0897 8.2526 76.9042 8.66602 76.7805 9.13477C76.6568 9.59701 76.5949 10.0885 76.5949 10.6094ZM89.9297 14.3691L92.8203 5.43359H94.666L90.8672 16H89.6562L89.9297 14.3691ZM87.5176 5.43359L90.4961 14.418L90.7012 16H89.4902L85.6621 5.43359H87.5176ZM102.679 14.1934V8.75391C102.679 8.33724 102.594 7.97591 102.425 7.66992C102.262 7.35742 102.014 7.11654 101.682 6.94727C101.35 6.77799 100.94 6.69336 100.452 6.69336C99.9962 6.69336 99.5958 6.77148 99.2508 6.92773C98.9122 7.08398 98.6453 7.28906 98.45 7.54297C98.2612 7.79688 98.1668 8.07031 98.1668 8.36328H96.3602C96.3602 7.98568 96.4578 7.61133 96.6531 7.24023C96.8484 6.86914 97.1284 6.53385 97.493 6.23438C97.8641 5.92839 98.3068 5.6875 98.8211 5.51172C99.3419 5.32943 99.9214 5.23828 100.559 5.23828C101.328 5.23828 102.005 5.36849 102.591 5.62891C103.183 5.88932 103.645 6.2832 103.977 6.81055C104.316 7.33138 104.485 7.98568 104.485 8.77344V13.6953C104.485 14.0469 104.514 14.4212 104.573 14.8184C104.638 15.2155 104.733 15.5573 104.856 15.8438V16H102.971C102.88 15.7917 102.809 15.515 102.757 15.1699C102.705 14.8184 102.679 14.4928 102.679 14.1934ZM102.991 9.59375L103.011 10.8633H101.184C100.67 10.8633 100.211 10.9056 99.8074 10.9902C99.4038 11.0684 99.0652 11.1888 98.7918 11.3516C98.5184 11.5143 98.31 11.7194 98.1668 11.9668C98.0236 12.2077 97.952 12.4909 97.952 12.8164C97.952 13.1484 98.0268 13.4512 98.1766 13.7246C98.3263 13.998 98.5509 14.2161 98.8504 14.3789C99.1564 14.5352 99.5307 14.6133 99.9734 14.6133C100.527 14.6133 101.015 14.4961 101.438 14.2617C101.861 14.0273 102.197 13.7409 102.444 13.4023C102.698 13.0638 102.835 12.735 102.854 12.416L103.626 13.2852C103.58 13.5586 103.457 13.8613 103.255 14.1934C103.053 14.5254 102.783 14.8444 102.444 15.1504C102.112 15.4499 101.715 15.7005 101.253 15.9023C100.797 16.0977 100.283 16.1953 99.7098 16.1953C98.9936 16.1953 98.3654 16.0553 97.825 15.7754C97.2911 15.4954 96.8745 15.1211 96.575 14.6523C96.282 14.1771 96.1355 13.6465 96.1355 13.0605C96.1355 12.4941 96.2462 11.9961 96.4676 11.5664C96.6889 11.1302 97.0079 10.7689 97.4246 10.4824C97.8413 10.1895 98.3426 9.9681 98.9285 9.81836C99.5145 9.66862 100.169 9.59375 100.891 9.59375H102.991ZM109.49 1V16H107.673V1H109.49ZM118.743 13.1973C118.743 12.9368 118.684 12.696 118.567 12.4746C118.456 12.2467 118.225 12.0417 117.873 11.8594C117.528 11.6706 117.008 11.5078 116.311 11.3711C115.725 11.2474 115.194 11.1009 114.719 10.9316C114.25 10.7624 113.85 10.5573 113.518 10.3164C113.192 10.0755 112.942 9.79232 112.766 9.4668C112.59 9.14128 112.502 8.76042 112.502 8.32422C112.502 7.90755 112.593 7.51367 112.776 7.14258C112.965 6.77148 113.228 6.44271 113.567 6.15625C113.912 5.86979 114.325 5.64518 114.807 5.48242C115.289 5.31966 115.826 5.23828 116.418 5.23828C117.265 5.23828 117.987 5.38802 118.586 5.6875C119.185 5.98698 119.644 6.38737 119.963 6.88867C120.282 7.38346 120.442 7.93359 120.442 8.53906H118.635C118.635 8.24609 118.547 7.96289 118.371 7.68945C118.202 7.40951 117.952 7.17839 117.62 6.99609C117.294 6.8138 116.894 6.72266 116.418 6.72266C115.917 6.72266 115.51 6.80078 115.198 6.95703C114.892 7.10677 114.667 7.29883 114.524 7.5332C114.387 7.76758 114.319 8.01497 114.319 8.27539C114.319 8.4707 114.351 8.64648 114.416 8.80273C114.488 8.95247 114.612 9.09245 114.787 9.22266C114.963 9.34635 115.211 9.46354 115.53 9.57422C115.849 9.6849 116.256 9.79557 116.75 9.90625C117.616 10.1016 118.329 10.3359 118.889 10.6094C119.449 10.8828 119.866 11.2181 120.139 11.6152C120.412 12.0124 120.549 12.4941 120.549 13.0605C120.549 13.5228 120.452 13.946 120.256 14.3301C120.067 14.7142 119.791 15.0462 119.426 15.3262C119.068 15.5996 118.638 15.8145 118.137 15.9707C117.642 16.1204 117.086 16.1953 116.467 16.1953C115.536 16.1953 114.748 16.0293 114.104 15.6973C113.459 15.3652 112.971 14.9355 112.639 14.4082C112.307 13.8809 112.141 13.3242 112.141 12.7383H113.957C113.983 13.2331 114.127 13.627 114.387 13.9199C114.648 14.2064 114.967 14.4115 115.344 14.5352C115.722 14.6523 116.096 14.7109 116.467 14.7109C116.962 14.7109 117.375 14.6458 117.707 14.5156C118.046 14.3854 118.303 14.2064 118.479 13.9785C118.655 13.7507 118.743 13.4902 118.743 13.1973Z" fill="#0A2632" fill-opacity="0.7"/>
<path d="M136.004 6.26575H137.785C139.993 6.26575 140.901 7.83339 139.793 9.74792L138.899 11.2889L138.006 12.8298C136.898 14.7444 135.09 14.7444 133.983 12.8298L133.089 11.2889L132.195 9.74792C131.108 7.83339 132.008 6.26575 134.223 6.26575H136.004Z" fill="#0A2632" fill-opacity="0.7"/>
<path opacity="0.8" d="M2.79999 5.5H13.15M6.39999 12.7H8.19999M10.45 12.7H14.05" stroke="#0A2632" stroke-opacity="0.7" stroke-width="1.35" stroke-miterlimit="10" stroke-linecap="round" stroke-linejoin="round"/>
<path opacity="0.8" d="M19 7.777V12.349C19 15.508 18.199 16.3 15.004 16.3H4.996C1.801 16.3 1 15.508 1 12.349V4.951C1 1.792 1.801 1 4.996 1H11.35" stroke="#0A2632" stroke-opacity="0.7" stroke-width="1.35" stroke-linecap="round" stroke-linejoin="round"/>
<path d="M14.05 4.15002L15.4 5.50002L19 1.90002" stroke="#0A2632" stroke-opacity="0.7" stroke-width="1.35" stroke-linecap="round" stroke-linejoin="round"/>
</g>
</svg>
