<svg width="36" height="36" viewBox="0 0 36 36" fill="none" xmlns="http://www.w3.org/2000/svg">
<path d="M18 36C27.9414 36 36 27.9414 36 18C36 8.0586 27.9414 0 18 0C8.0586 0 0 8.0586 0 18C0 27.9414 8.0586 36 18 36Z" fill="#DCDEEA"/>
<path d="M18.209 15.1324C18.0702 15.1141 17.9298 15.1141 17.791 15.1324C16.3139 15.0801 14.914 14.4258 13.887 13.3078C12.86 12.1897 12.2863 10.6954 12.2872 9.14064C12.2872 5.82407 14.8301 3.1305 18 3.1305C19.4969 3.12777 20.9349 3.74399 22.0039 4.84633C23.0729 5.94866 23.6874 7.4488 23.7148 9.02334C23.7422 10.5979 23.1804 12.1207 22.1505 13.2635C21.1205 14.4063 19.705 15.0775 18.209 15.1324ZM29.7391 27.226C26.5383 30.321 22.3474 32.0349 18 32.0268C13.4715 32.0268 9.36111 30.2127 6.26086 27.226C6.43504 25.5036 7.48006 23.8178 9.34369 22.4985C14.116 19.1636 21.9188 19.1636 26.6563 22.4985C28.5199 23.8178 29.565 25.5036 29.7391 27.226Z" fill="white"/>
</svg>
