<svg width="31" height="41" viewBox="0 0 31 41" fill="none" xmlns="http://www.w3.org/2000/svg">
<path d="M3.91102 37.1463C3.91102 37.0318 3.8934 36.929 3.85816 36.838C3.82587 36.744 3.76421 36.6589 3.67318 36.5826C3.58216 36.5033 3.45444 36.4255 3.29001 36.3491C3.12558 36.2728 2.91271 36.1935 2.65139 36.1113C2.3607 36.0173 2.0847 35.9116 1.82338 35.7942C1.56499 35.6767 1.33597 35.5402 1.13631 35.3846C0.939583 35.226 0.783965 35.0425 0.669453 34.834C0.557878 34.6256 0.50209 34.3833 0.50209 34.1073C0.50209 33.8401 0.560814 33.5979 0.678262 33.3806C0.79571 33.1604 0.960137 32.9725 1.17154 32.8169C1.38295 32.6583 1.63253 32.5365 1.92027 32.4513C2.21096 32.3662 2.52953 32.3236 2.87601 32.3236C3.34873 32.3236 3.76127 32.4087 4.11361 32.579C4.46596 32.7493 4.73902 32.9828 4.93281 33.2793C5.12954 33.5759 5.2279 33.915 5.2279 34.2967H3.91542C3.91542 34.1088 3.87578 33.9444 3.7965 33.8034C3.72016 33.6596 3.60272 33.5465 3.44416 33.4643C3.28854 33.3821 3.09182 33.341 2.85398 33.341C2.62496 33.341 2.43411 33.3762 2.28143 33.4467C2.12874 33.5142 2.01423 33.6067 1.93789 33.7242C1.86155 33.8387 1.82338 33.9679 1.82338 34.1117C1.82338 34.2204 1.8498 34.3187 1.90266 34.4068C1.95844 34.4949 2.04066 34.5771 2.1493 34.6535C2.25794 34.7298 2.39153 34.8017 2.55009 34.8693C2.70864 34.9368 2.89216 35.0029 3.10063 35.0675C3.45003 35.1732 3.75687 35.2921 4.02112 35.4242C4.28832 35.5564 4.51147 35.7046 4.69058 35.8691C4.86968 36.0335 5.00475 36.2199 5.09577 36.4284C5.18679 36.6369 5.2323 36.8732 5.2323 37.1375C5.2323 37.4164 5.17799 37.666 5.06935 37.8862C4.96071 38.1064 4.80362 38.2929 4.59809 38.4456C4.39255 38.5983 4.14738 38.7142 3.86257 38.7935C3.57776 38.8728 3.25918 38.9124 2.90684 38.9124C2.58973 38.9124 2.27702 38.8713 1.96872 38.7891C1.66042 38.704 1.38001 38.5762 1.1275 38.4059C0.877923 38.2356 0.678262 38.0184 0.528516 37.7541C0.37877 37.4898 0.303896 37.1771 0.303896 36.816H1.62959C1.62959 37.0156 1.66042 37.1845 1.72208 37.3225C1.78374 37.4605 1.87036 37.5721 1.98193 37.6572C2.09645 37.7424 2.23151 37.804 2.38713 37.8422C2.54568 37.8804 2.71892 37.8994 2.90684 37.8994C3.13586 37.8994 3.32378 37.8671 3.47059 37.8025C3.62033 37.7379 3.73044 37.6484 3.80091 37.5339C3.87431 37.4194 3.91102 37.2902 3.91102 37.1463ZM8.42524 38.9124C8.05528 38.9124 7.72349 38.8537 7.42987 38.7363C7.13625 38.6159 6.88668 38.45 6.68114 38.2386C6.47854 38.0272 6.32293 37.782 6.21429 37.5031C6.10565 37.2212 6.05133 36.9217 6.05133 36.6046V36.4284C6.05133 36.0673 6.10271 35.7369 6.20548 35.4374C6.30825 35.1379 6.45505 34.8781 6.64591 34.6579C6.8397 34.4377 7.07459 34.2688 7.3506 34.1514C7.6266 34.031 7.93784 33.9708 8.28431 33.9708C8.62197 33.9708 8.92146 34.0266 9.18278 34.1382C9.4441 34.2497 9.66285 34.4083 9.83902 34.6138C10.0181 34.8194 10.1532 35.066 10.2442 35.3538C10.3352 35.6386 10.3808 35.9557 10.3808 36.3051V36.8336H6.59306V35.988H9.13434V35.8911C9.13434 35.7149 9.10204 35.5578 9.03744 35.4198C8.97578 35.2789 8.88182 35.1673 8.75557 35.0851C8.62931 35.0029 8.46782 34.9618 8.27109 34.9618C8.10373 34.9618 7.95986 34.9985 7.83947 35.0719C7.71909 35.1453 7.62073 35.2481 7.54438 35.3802C7.47098 35.5123 7.41519 35.6679 7.37702 35.847C7.34179 36.0232 7.32417 36.217 7.32417 36.4284V36.6046C7.32417 36.7954 7.3506 36.9716 7.40345 37.1331C7.45923 37.2946 7.53704 37.4341 7.63687 37.5515C7.73964 37.6689 7.86296 37.76 8.00684 37.8246C8.15365 37.8892 8.31954 37.9215 8.50452 37.9215C8.73354 37.9215 8.94642 37.8774 9.14314 37.7893C9.34281 37.6983 9.51457 37.5618 9.65845 37.3797L10.275 38.0492C10.1752 38.1931 10.0387 38.3311 9.86545 38.4632C9.69515 38.5953 9.48962 38.704 9.24885 38.7891C9.00808 38.8713 8.73354 38.9124 8.42524 38.9124ZM13.6177 34.0589V34.9574H10.843V34.0589H13.6177ZM11.5301 32.8829H12.7985V37.3885C12.7985 37.5265 12.8162 37.6322 12.8514 37.7056C12.8896 37.7791 12.9453 37.8304 13.0187 37.8598C13.0922 37.8862 13.1846 37.8994 13.2962 37.8994C13.3755 37.8994 13.446 37.8965 13.5076 37.8906C13.5722 37.8818 13.6265 37.873 13.6706 37.8642L13.675 38.7979C13.5664 38.8331 13.4489 38.861 13.3226 38.8816C13.1964 38.9022 13.0569 38.9124 12.9042 38.9124C12.6253 38.9124 12.3816 38.8669 12.1731 38.7759C11.9676 38.6819 11.809 38.5322 11.6975 38.3267C11.5859 38.1211 11.5301 37.851 11.5301 37.5163V32.8829ZM16.8547 34.0589V34.9574H14.08V34.0589H16.8547ZM14.7671 32.8829H16.0355V37.3885C16.0355 37.5265 16.0531 37.6322 16.0884 37.7056C16.1265 37.7791 16.1823 37.8304 16.2557 37.8598C16.3291 37.8862 16.4216 37.8994 16.5332 37.8994C16.6125 37.8994 16.6829 37.8965 16.7446 37.8906C16.8092 37.8818 16.8635 37.873 16.9076 37.8642L16.912 38.7979C16.8033 38.8331 16.6859 38.861 16.5596 38.8816C16.4334 38.9022 16.2939 38.9124 16.1412 38.9124C15.8623 38.9124 15.6186 38.8669 15.4101 38.7759C15.2046 38.6819 15.046 38.5322 14.9344 38.3267C14.8229 38.1211 14.7671 37.851 14.7671 37.5163V32.8829ZM19.0963 34.0589V38.8243H17.8235V34.0589H19.0963ZM17.7442 32.8169C17.7442 32.6319 17.8088 32.4792 17.938 32.3588C18.0672 32.2384 18.2404 32.1783 18.4577 32.1783C18.672 32.1783 18.8438 32.2384 18.973 32.3588C19.1051 32.4792 19.1712 32.6319 19.1712 32.8169C19.1712 33.0019 19.1051 33.1545 18.973 33.2749C18.8438 33.3953 18.672 33.4555 18.4577 33.4555C18.2404 33.4555 18.0672 33.3953 17.938 33.2749C17.8088 33.1545 17.7442 33.0019 17.7442 32.8169ZM21.567 35.0763V38.8243H20.2985V34.0589H21.4877L21.567 35.0763ZM21.382 36.2743H21.0384C21.0384 35.9219 21.084 35.6048 21.175 35.3229C21.266 35.0381 21.3937 34.7959 21.5582 34.5962C21.7226 34.3936 21.9178 34.2395 22.1439 34.1338C22.3729 34.0251 22.6284 33.9708 22.9103 33.9708C23.1334 33.9708 23.3375 34.0031 23.5225 34.0677C23.7075 34.1323 23.866 34.2351 23.9981 34.376C24.1332 34.5169 24.236 34.7034 24.3064 34.9353C24.3798 35.1673 24.4165 35.4506 24.4165 35.7854V38.8243H23.1393V35.781C23.1393 35.5696 23.1099 35.4051 23.0512 35.2877C22.9925 35.1702 22.9059 35.088 22.7914 35.041C22.6798 34.9911 22.5418 34.9662 22.3774 34.9662C22.2071 34.9662 22.0588 34.9999 21.9325 35.0675C21.8092 35.135 21.7064 35.229 21.6242 35.3494C21.5449 35.4668 21.4847 35.6048 21.4436 35.7634C21.4025 35.9219 21.382 36.0922 21.382 36.2743ZM28.5784 34.0589H29.7279V38.6658C29.7279 39.1003 29.6311 39.4688 29.4373 39.7713C29.2464 40.0766 28.9792 40.3071 28.6357 40.4627C28.2921 40.6213 27.8928 40.7006 27.4377 40.7006C27.2381 40.7006 27.0266 40.6741 26.8035 40.6213C26.5833 40.5684 26.3719 40.4862 26.1693 40.3747C25.9696 40.2631 25.8023 40.1221 25.6672 39.9518L26.2265 39.2031C26.3733 39.3734 26.5436 39.5055 26.7374 39.5995C26.9312 39.6964 27.1456 39.7448 27.3805 39.7448C27.6095 39.7448 27.8033 39.7023 27.9618 39.6171C28.1204 39.5349 28.2422 39.413 28.3274 39.2516C28.4125 39.093 28.4551 38.9007 28.4551 38.6746V35.16L28.5784 34.0589ZM25.3721 36.4989V36.4064C25.3721 36.0423 25.4161 35.712 25.5042 35.4154C25.5953 35.1159 25.723 34.859 25.8874 34.6447C26.0548 34.4303 26.2574 34.2644 26.4952 34.147C26.733 34.0295 27.0017 33.9708 27.3012 33.9708C27.6183 33.9708 27.884 34.0295 28.0984 34.147C28.3127 34.2644 28.4889 34.4318 28.6269 34.6491C28.7649 34.8634 28.872 35.1174 28.9484 35.411C29.0277 35.7017 29.0893 36.0203 29.1334 36.3667V36.5693C29.0893 36.9011 29.0233 37.2094 28.9352 37.4942C28.8471 37.7791 28.7311 38.0286 28.5872 38.243C28.4434 38.4544 28.2643 38.6188 28.0499 38.7363C27.8385 38.8537 27.586 38.9124 27.2924 38.9124C26.9988 38.9124 26.733 38.8522 26.4952 38.7319C26.2603 38.6115 26.0592 38.4426 25.8918 38.2254C25.7244 38.0081 25.5953 37.7526 25.5042 37.459C25.4161 37.1654 25.3721 36.8453 25.3721 36.4989ZM26.6405 36.4064V36.4989C26.6405 36.6956 26.6596 36.8791 26.6978 37.0494C26.736 37.2197 26.7947 37.3709 26.874 37.5031C26.9562 37.6322 27.0575 37.7335 27.1779 37.8069C27.3012 37.8774 27.4465 37.9127 27.6139 37.9127C27.8458 37.9127 28.0352 37.8642 28.182 37.7673C28.3289 37.6675 28.439 37.5309 28.5124 37.3577C28.5858 37.1845 28.6283 36.9848 28.6401 36.7587V36.1818C28.6342 35.9968 28.6093 35.8309 28.5652 35.6841C28.5212 35.5343 28.4595 35.4066 28.3802 35.3009C28.301 35.1952 28.1982 35.113 28.0719 35.0543C27.9457 34.9955 27.7959 34.9662 27.6227 34.9662C27.4553 34.9662 27.31 35.0043 27.1867 35.0807C27.0663 35.1541 26.965 35.2554 26.8828 35.3846C26.8035 35.5138 26.7433 35.6665 26.7022 35.8426C26.6611 36.0159 26.6405 36.2038 26.6405 36.4064Z" fill="white" fill-opacity="0.7"/>
<path d="M15.6551 16.1551C16.6245 16.1551 17.5542 15.7701 18.2396 15.0846C18.9251 14.3991 19.3102 13.4694 19.3102 12.5001C19.3102 11.5307 18.9251 10.601 18.2396 9.91552C17.5542 9.23006 16.6245 8.84497 15.6551 8.84497C14.6857 8.84497 13.756 9.23006 13.0705 9.91552C12.3851 10.601 12 11.5307 12 12.5001C12 13.4694 12.3851 14.3991 13.0705 15.0846C13.756 15.7701 14.6857 16.1551 15.6551 16.1551Z" stroke="white" stroke-opacity="0.8" stroke-width="1.82754" stroke-miterlimit="10" stroke-linecap="round" stroke-linejoin="round"/>
<path d="M3 13.5722V11.4278C3 10.1607 4.03561 9.11295 5.31489 9.11295C7.52012 9.11295 8.42171 7.55345 7.313 5.64062C6.67945 4.54409 7.05714 3.11861 8.16585 2.48506L10.2736 1.27888C11.2361 0.706255 12.4789 1.0474 13.0515 2.0099L13.1855 2.24139C14.282 4.15422 16.0852 4.15422 17.1939 2.24139L17.3279 2.0099C17.9006 1.0474 19.1433 0.706255 20.1058 1.27888L22.2136 2.48506C23.3223 3.11861 23.7 4.54409 23.0664 5.64062C21.9577 7.55345 22.8593 9.11295 25.0645 9.11295C26.3316 9.11295 27.3794 10.1486 27.3794 11.4278V13.5722C27.3794 14.8393 26.3438 15.887 25.0645 15.887C22.8593 15.887 21.9577 17.4465 23.0664 19.3594C23.7 20.4681 23.3223 21.8814 22.2136 22.5149L20.1058 23.7211C19.1433 24.2937 17.9006 23.9526 17.3279 22.9901L17.1939 22.7586C16.0974 20.8458 14.2942 20.8458 13.1855 22.7586L13.0515 22.9901C12.4789 23.9526 11.2361 24.2937 10.2736 23.7211L8.16585 22.5149C7.63477 22.2091 7.2467 21.7051 7.08681 21.1135C6.92691 20.5219 7.00826 19.8911 7.313 19.3594C8.42171 17.4465 7.52012 15.887 5.31489 15.887C4.03561 15.887 3 14.8393 3 13.5722Z" stroke="white" stroke-opacity="0.8" stroke-width="1.82754" stroke-miterlimit="10" stroke-linecap="round" stroke-linejoin="round"/>
</svg>
