<svg width="67" height="41" viewBox="0 0 67 41" fill="none" xmlns="http://www.w3.org/2000/svg">
<path d="M5.65512 35.724V38.2653C5.55529 38.3857 5.40114 38.5163 5.19267 38.6573C4.9842 38.7953 4.71553 38.9142 4.38668 39.014C4.05783 39.1139 3.65997 39.1638 3.19312 39.1638C2.77911 39.1638 2.40181 39.0962 2.06121 38.9612C1.72061 38.8232 1.42699 38.622 1.18035 38.3578C0.936647 38.0935 0.748731 37.7705 0.616602 37.3888C0.484473 37.0042 0.418408 36.5652 0.418408 36.072V35.6712C0.418408 35.1779 0.481536 34.7389 0.607793 34.3543C0.736986 33.9696 0.920498 33.6452 1.15833 33.3809C1.39616 33.1167 1.67951 32.9155 2.00836 32.7775C2.33721 32.6395 2.70277 32.5705 3.10503 32.5705C3.66291 32.5705 4.12095 32.6616 4.47917 32.8436C4.83739 33.0227 5.11045 33.2723 5.29837 33.5923C5.48922 33.9094 5.60667 34.2735 5.65071 34.6846H4.36906C4.33676 34.4673 4.2751 34.2779 4.18408 34.1164C4.09306 33.955 3.9624 33.8287 3.7921 33.7377C3.62474 33.6467 3.40746 33.6011 3.14026 33.6011C2.92005 33.6011 2.72332 33.6467 2.55009 33.7377C2.37979 33.8258 2.23591 33.9564 2.11847 34.1297C2.00102 34.3029 1.91146 34.5172 1.8498 34.7727C1.78814 35.0281 1.75731 35.3247 1.75731 35.6624V36.072C1.75731 36.4067 1.78961 36.7032 1.85421 36.9616C1.91881 37.2171 2.01423 37.4329 2.14049 37.6091C2.26968 37.7823 2.42824 37.9129 2.61615 38.001C2.80407 38.0891 3.02282 38.1332 3.27239 38.1332C3.48086 38.1332 3.6541 38.1155 3.7921 38.0803C3.93304 38.0451 4.04608 38.0025 4.13123 37.9526C4.21932 37.8997 4.28685 37.8498 4.33383 37.8028V36.6665H3.12705V35.724H5.65512ZM9.01542 39.1638C8.64546 39.1638 8.31367 39.105 8.02005 38.9876C7.72643 38.8672 7.47685 38.7013 7.27132 38.4899C7.06872 38.2785 6.9131 38.0333 6.80446 37.7544C6.69582 37.4725 6.6415 37.173 6.6415 36.8559V36.6797C6.6415 36.3186 6.69289 35.9883 6.79565 35.6888C6.89842 35.3893 7.04523 35.1294 7.23608 34.9092C7.42987 34.689 7.66477 34.5202 7.94077 34.4027C8.21677 34.2823 8.52801 34.2221 8.87448 34.2221C9.21215 34.2221 9.51164 34.2779 9.77296 34.3895C10.0343 34.5011 10.253 34.6596 10.4292 34.8652C10.6083 35.0707 10.7434 35.3174 10.8344 35.6051C10.9254 35.8899 10.9709 36.207 10.9709 36.5564V37.0849H7.18323V36.2393H9.72451V36.1424C9.72451 35.9662 9.69221 35.8092 9.62762 35.6712C9.56596 35.5302 9.472 35.4186 9.34574 35.3364C9.21949 35.2542 9.05799 35.2131 8.86127 35.2131C8.69391 35.2131 8.55003 35.2498 8.42965 35.3232C8.30926 35.3966 8.2109 35.4994 8.13456 35.6315C8.06116 35.7637 8.00537 35.9193 7.9672 36.0984C7.93196 36.2746 7.91435 36.4683 7.91435 36.6797V36.8559C7.91435 37.0468 7.94077 37.2229 7.99362 37.3844C8.04941 37.5459 8.12722 37.6854 8.22705 37.8028C8.32982 37.9203 8.45314 38.0113 8.59701 38.0759C8.74382 38.1405 8.90972 38.1728 9.0947 38.1728C9.32372 38.1728 9.5366 38.1288 9.73332 38.0407C9.93298 37.9497 10.1047 37.8131 10.2486 37.6311L10.8652 38.3005C10.7654 38.4444 10.6289 38.5824 10.4556 38.7145C10.2853 38.8467 10.0798 38.9553 9.83902 39.0404C9.59826 39.1227 9.32372 39.1638 9.01542 39.1638ZM14.2079 34.3102V35.2087H11.4332V34.3102H14.2079ZM12.1203 33.1343H13.3887V37.6399C13.3887 37.7779 13.4063 37.8836 13.4416 37.957C13.4797 38.0304 13.5355 38.0818 13.6089 38.1111C13.6823 38.1376 13.7748 38.1508 13.8864 38.1508C13.9657 38.1508 14.0361 38.1478 14.0978 38.142C14.1624 38.1332 14.2167 38.1244 14.2608 38.1155L14.2652 39.0493C14.1565 39.0845 14.0391 39.1124 13.9128 39.1329C13.7866 39.1535 13.6471 39.1638 13.4944 39.1638C13.2155 39.1638 12.9718 39.1183 12.7633 39.0272C12.5578 38.9333 12.3992 38.7835 12.2876 38.578C12.1761 38.3725 12.1203 38.1023 12.1203 37.7676V33.1343ZM17.4449 34.3102V35.2087H14.6702V34.3102H17.4449ZM15.3573 33.1343H16.6257V37.6399C16.6257 37.7779 16.6433 37.8836 16.6785 37.957C16.7167 38.0304 16.7725 38.0818 16.8459 38.1111C16.9193 38.1376 17.0118 38.1508 17.1234 38.1508C17.2027 38.1508 17.2731 38.1478 17.3348 38.142C17.3994 38.1332 17.4537 38.1244 17.4977 38.1155L17.5021 39.0493C17.3935 39.0845 17.2761 39.1124 17.1498 39.1329C17.0235 39.1535 16.8841 39.1638 16.7314 39.1638C16.4525 39.1638 16.2088 39.1183 16.0003 39.0272C15.7947 38.9333 15.6362 38.7835 15.5246 38.578C15.413 38.3725 15.3573 38.1023 15.3573 37.7676V33.1343ZM19.6865 34.3102V39.0757H18.4137V34.3102H19.6865ZM18.3344 33.0682C18.3344 32.8832 18.399 32.7306 18.5282 32.6102C18.6574 32.4898 18.8306 32.4296 19.0479 32.4296C19.2622 32.4296 19.434 32.4898 19.5632 32.6102C19.6953 32.7306 19.7614 32.8832 19.7614 33.0682C19.7614 33.2532 19.6953 33.4059 19.5632 33.5263C19.434 33.6467 19.2622 33.7068 19.0479 33.7068C18.8306 33.7068 18.6574 33.6467 18.5282 33.5263C18.399 33.4059 18.3344 33.2532 18.3344 33.0682ZM22.1571 35.3276V39.0757H20.8887V34.3102H22.0779L22.1571 35.3276ZM21.9722 36.5256H21.6286C21.6286 36.1733 21.6741 35.8561 21.7652 35.5743C21.8562 35.2895 21.9839 35.0472 22.1483 34.8476C22.3128 34.645 22.508 34.4908 22.7341 34.3851C22.9631 34.2765 23.2186 34.2221 23.5004 34.2221C23.7236 34.2221 23.9277 34.2544 24.1126 34.319C24.2976 34.3836 24.4562 34.4864 24.5883 34.6273C24.7234 34.7683 24.8261 34.9547 24.8966 35.1867C24.97 35.4186 25.0067 35.702 25.0067 36.0367V39.0757H23.7295V36.0323C23.7295 35.8209 23.7001 35.6565 23.6414 35.539C23.5827 35.4216 23.496 35.3394 23.3815 35.2924C23.27 35.2425 23.132 35.2175 22.9675 35.2175C22.7972 35.2175 22.649 35.2513 22.5227 35.3188C22.3994 35.3864 22.2966 35.4803 22.2144 35.6007C22.1351 35.7181 22.0749 35.8561 22.0338 36.0147C21.9927 36.1733 21.9722 36.3436 21.9722 36.5256ZM29.1686 34.3102H30.3181V38.9171C30.3181 39.3517 30.2212 39.7202 30.0274 40.0226C29.8366 40.328 29.5694 40.5585 29.2259 40.7141C28.8823 40.8726 28.483 40.9519 28.0279 40.9519C27.8282 40.9519 27.6168 40.9255 27.3937 40.8726C27.1735 40.8198 26.9621 40.7376 26.7595 40.626C26.5598 40.5144 26.3924 40.3735 26.2574 40.2032L26.8167 39.4545C26.9635 39.6248 27.1338 39.7569 27.3276 39.8508C27.5214 39.9477 27.7357 39.9962 27.9706 39.9962C28.1997 39.9962 28.3934 39.9536 28.552 39.8685C28.7106 39.7862 28.8324 39.6644 28.9176 39.5029C29.0027 39.3443 29.0453 39.152 29.0453 38.9259V35.4113L29.1686 34.3102ZM25.9623 36.7502V36.6577C25.9623 36.2936 26.0063 35.9633 26.0944 35.6668C26.1854 35.3673 26.3132 35.1103 26.4776 34.896C26.6449 34.6817 26.8475 34.5158 27.0854 34.3983C27.3232 34.2809 27.5919 34.2221 27.8914 34.2221C28.2085 34.2221 28.4742 34.2809 28.6885 34.3983C28.9029 34.5158 29.079 34.6831 29.2171 34.9004C29.3551 35.1148 29.4622 35.3687 29.5386 35.6624C29.6178 35.953 29.6795 36.2716 29.7235 36.6181V36.8207C29.6795 37.1525 29.6134 37.4608 29.5254 37.7456C29.4373 38.0304 29.3213 38.28 29.1774 38.4943C29.0335 38.7057 28.8544 38.8701 28.6401 38.9876C28.4287 39.105 28.1762 39.1638 27.8825 39.1638C27.5889 39.1638 27.3232 39.1036 27.0854 38.9832C26.8505 38.8628 26.6493 38.694 26.482 38.4767C26.3146 38.2594 26.1854 38.004 26.0944 37.7104C26.0063 37.4167 25.9623 37.0967 25.9623 36.7502ZM27.2307 36.6577V36.7502C27.2307 36.9469 27.2498 37.1305 27.288 37.3008C27.3261 37.4711 27.3849 37.6223 27.4641 37.7544C27.5464 37.8836 27.6477 37.9849 27.768 38.0583C27.8914 38.1288 28.0367 38.164 28.2041 38.164C28.436 38.164 28.6254 38.1155 28.7722 38.0187C28.919 37.9188 29.0291 37.7823 29.1025 37.6091C29.1759 37.4358 29.2185 37.2362 29.2303 37.0101V36.4331C29.2244 36.2481 29.1994 36.0822 29.1554 35.9354C29.1113 35.7857 29.0497 35.6579 28.9704 35.5522C28.8911 35.4465 28.7884 35.3643 28.6621 35.3056C28.5359 35.2469 28.3861 35.2175 28.2129 35.2175C28.0455 35.2175 27.9002 35.2557 27.7768 35.332C27.6565 35.4054 27.5552 35.5067 27.4729 35.6359C27.3937 35.7651 27.3335 35.9178 27.2924 36.094C27.2513 36.2672 27.2307 36.4551 27.2307 36.6577ZM39.756 37.3976C39.756 37.2831 39.7384 37.1804 39.7032 37.0893C39.6709 36.9954 39.6092 36.9102 39.5182 36.8339C39.4272 36.7546 39.2994 36.6768 39.135 36.6005C38.9706 36.5241 38.7577 36.4449 38.4964 36.3626C38.2057 36.2687 37.9297 36.163 37.6684 36.0455C37.41 35.9281 37.181 35.7915 36.9813 35.6359C36.7846 35.4774 36.629 35.2939 36.5144 35.0854C36.4029 34.8769 36.3471 34.6347 36.3471 34.3587C36.3471 34.0915 36.4058 33.8493 36.5233 33.632C36.6407 33.4118 36.8051 33.2238 37.0165 33.0682C37.2279 32.9097 37.4775 32.7878 37.7653 32.7027C38.0559 32.6175 38.3745 32.5749 38.721 32.5749C39.1937 32.5749 39.6063 32.6601 39.9586 32.8304C40.3109 33.0007 40.584 33.2341 40.7778 33.5307C40.9745 33.8272 41.0729 34.1664 41.0729 34.5481H39.7604C39.7604 34.3601 39.7208 34.1957 39.6415 34.0548C39.5652 33.9109 39.4477 33.7979 39.2892 33.7157C39.1335 33.6334 38.9368 33.5923 38.699 33.5923C38.47 33.5923 38.2791 33.6276 38.1264 33.698C37.9737 33.7656 37.8592 33.8581 37.7829 33.9755C37.7065 34.09 37.6684 34.2192 37.6684 34.3631C37.6684 34.4717 37.6948 34.5701 37.7476 34.6582C37.8034 34.7463 37.8856 34.8285 37.9943 34.9048C38.1029 34.9812 38.2365 35.0531 38.3951 35.1206C38.5536 35.1882 38.7371 35.2542 38.9456 35.3188C39.295 35.4245 39.6019 35.5434 39.8661 35.6756C40.1333 35.8077 40.3565 35.956 40.5356 36.1204C40.7147 36.2848 40.8497 36.4713 40.9408 36.6797C41.0318 36.8882 41.0773 37.1246 41.0773 37.3888C41.0773 37.6678 41.023 37.9174 40.9143 38.1376C40.8057 38.3578 40.6486 38.5442 40.4431 38.6969C40.2375 38.8496 39.9924 38.9656 39.7076 39.0449C39.4227 39.1241 39.1042 39.1638 38.7518 39.1638C38.4347 39.1638 38.122 39.1227 37.8137 39.0404C37.5054 38.9553 37.225 38.8276 36.9725 38.6573C36.7229 38.487 36.5233 38.2697 36.3735 38.0054C36.2238 37.7412 36.1489 37.4285 36.1489 37.0673H37.4746C37.4746 37.267 37.5054 37.4358 37.5671 37.5738C37.6287 37.7118 37.7153 37.8234 37.8269 37.9085C37.9414 37.9937 38.0765 38.0554 38.2321 38.0935C38.3907 38.1317 38.5639 38.1508 38.7518 38.1508C38.9808 38.1508 39.1688 38.1185 39.3156 38.0539C39.4653 37.9893 39.5754 37.8997 39.6459 37.7852C39.7193 37.6707 39.756 37.5415 39.756 37.3976ZM44.4112 34.3102V35.2087H41.6365V34.3102H44.4112ZM42.3235 33.1343H43.592V37.6399C43.592 37.7779 43.6096 37.8836 43.6448 37.957C43.683 38.0304 43.7388 38.0818 43.8122 38.1111C43.8856 38.1376 43.9781 38.1508 44.0897 38.1508C44.1689 38.1508 44.2394 38.1478 44.3011 38.142C44.3657 38.1332 44.42 38.1244 44.464 38.1155L44.4684 39.0493C44.3598 39.0845 44.2423 39.1124 44.1161 39.1329C43.9898 39.1535 43.8504 39.1638 43.6977 39.1638C43.4187 39.1638 43.175 39.1183 42.9666 39.0272C42.761 38.9333 42.6025 38.7835 42.4909 38.578C42.3793 38.3725 42.3235 38.1023 42.3235 37.7676V33.1343ZM47.886 38.001V35.8782C47.886 35.7255 47.861 35.5948 47.8111 35.4862C47.7612 35.3746 47.6834 35.288 47.5777 35.2263C47.4749 35.1647 47.3413 35.1338 47.1769 35.1338C47.036 35.1338 46.9141 35.1588 46.8113 35.2087C46.7086 35.2557 46.6293 35.3247 46.5735 35.4157C46.5177 35.5038 46.4898 35.608 46.4898 35.7284H45.2214C45.2214 35.5258 45.2684 35.3335 45.3623 35.1515C45.4563 34.9694 45.5928 34.8094 45.7719 34.6714C45.951 34.5304 46.1639 34.4203 46.4105 34.3411C46.6601 34.2618 46.9391 34.2221 47.2474 34.2221C47.6173 34.2221 47.9462 34.2838 48.2339 34.4071C48.5217 34.5304 48.7478 34.7154 48.9122 34.9621C49.0796 35.2087 49.1632 35.517 49.1632 35.887V37.9262C49.1632 38.1875 49.1794 38.4018 49.2117 38.5692C49.244 38.7336 49.291 38.8775 49.3526 39.0008V39.0757H48.071C48.0093 38.9465 47.9623 38.785 47.93 38.5912C47.9007 38.3945 47.886 38.1978 47.886 38.001ZM48.0533 36.1733L48.0622 36.8912H47.3531C47.1857 36.8912 47.0404 36.9102 46.917 36.9484C46.7937 36.9866 46.6924 37.0409 46.6131 37.1114C46.5339 37.1789 46.4751 37.2582 46.437 37.3492C46.4017 37.4402 46.3841 37.5401 46.3841 37.6487C46.3841 37.7573 46.4091 37.8557 46.459 37.9438C46.5089 38.0289 46.5808 38.0965 46.6748 38.1464C46.7688 38.1934 46.8789 38.2168 47.0051 38.2168C47.196 38.2168 47.3619 38.1787 47.5028 38.1023C47.6437 38.026 47.7524 37.932 47.8287 37.8205C47.908 37.7089 47.9491 37.6032 47.9521 37.5033L48.2868 38.0407C48.2398 38.1611 48.1752 38.2858 48.093 38.415C48.0137 38.5442 47.9124 38.6661 47.7891 38.7806C47.6658 38.8922 47.5175 38.9847 47.3443 39.0581C47.171 39.1285 46.9655 39.1638 46.7277 39.1638C46.4252 39.1638 46.1507 39.1036 45.9041 38.9832C45.6603 38.8599 45.4666 38.691 45.3227 38.4767C45.1817 38.2594 45.1113 38.0128 45.1113 37.7368C45.1113 37.4872 45.1583 37.2655 45.2522 37.0717C45.3462 36.8779 45.4842 36.715 45.6662 36.5829C45.8512 36.4478 46.0817 36.3465 46.3577 36.279C46.6337 36.2085 46.9537 36.1733 47.3178 36.1733H48.0533ZM51.5898 35.3496V39.0757H50.3214V34.3102H51.5149L51.5898 35.3496ZM53.0256 34.2794L53.0036 35.4554C52.9419 35.4465 52.8671 35.4392 52.779 35.4333C52.6938 35.4245 52.616 35.4201 52.5456 35.4201C52.3664 35.4201 52.2108 35.4436 52.0787 35.4906C51.9495 35.5346 51.8409 35.6007 51.7528 35.6888C51.6676 35.7769 51.603 35.884 51.559 36.0103C51.5179 36.1365 51.4944 36.2804 51.4885 36.4419L51.2331 36.3626C51.2331 36.0543 51.2639 35.771 51.3256 35.5126C51.3872 35.2513 51.4768 35.0237 51.5942 34.8299C51.7146 34.6362 51.8614 34.4864 52.0347 34.3807C52.2079 34.275 52.4061 34.2221 52.6292 34.2221C52.6997 34.2221 52.7716 34.228 52.845 34.2398C52.9185 34.2486 52.9786 34.2618 53.0256 34.2794ZM56.3595 34.3102V35.2087H53.5848V34.3102H56.3595ZM54.2719 33.1343H55.5403V37.6399C55.5403 37.7779 55.5579 37.8836 55.5932 37.957C55.6313 38.0304 55.6871 38.0818 55.7605 38.1111C55.8339 38.1376 55.9264 38.1508 56.038 38.1508C56.1173 38.1508 56.1877 38.1478 56.2494 38.142C56.314 38.1332 56.3683 38.1244 56.4124 38.1155L56.4168 39.0493C56.3081 39.0845 56.1907 39.1124 56.0644 39.1329C55.9382 39.1535 55.7987 39.1638 55.646 39.1638C55.3671 39.1638 55.1234 39.1183 54.9149 39.0272C54.7094 38.9333 54.5508 38.7835 54.4392 38.578C54.3277 38.3725 54.2719 38.1023 54.2719 37.7676V33.1343ZM59.4555 39.1638C59.0856 39.1638 58.7538 39.105 58.4602 38.9876C58.1666 38.8672 57.917 38.7013 57.7114 38.4899C57.5088 38.2785 57.3532 38.0333 57.2446 37.7544C57.1359 37.4725 57.0816 37.173 57.0816 36.8559V36.6797C57.0816 36.3186 57.133 35.9883 57.2358 35.6888C57.3385 35.3893 57.4854 35.1294 57.6762 34.9092C57.87 34.689 58.1049 34.5202 58.3809 34.4027C58.6569 34.2823 58.9681 34.2221 59.3146 34.2221C59.6523 34.2221 59.9518 34.2779 60.2131 34.3895C60.4744 34.5011 60.6932 34.6596 60.8693 34.8652C61.0484 35.0707 61.1835 35.3174 61.2745 35.6051C61.3655 35.8899 61.4111 36.207 61.4111 36.5564V37.0849H57.6234V36.2393H60.1646V36.1424C60.1646 35.9662 60.1323 35.8092 60.0677 35.6712C60.0061 35.5302 59.9121 35.4186 59.7859 35.3364C59.6596 35.2542 59.4981 35.2131 59.3014 35.2131C59.134 35.2131 58.9902 35.2498 58.8698 35.3232C58.7494 35.3966 58.651 35.4994 58.5747 35.6315C58.5013 35.7637 58.4455 35.9193 58.4073 36.0984C58.3721 36.2746 58.3545 36.4683 58.3545 36.6797V36.8559C58.3545 37.0468 58.3809 37.2229 58.4337 37.3844C58.4895 37.5459 58.5673 37.6854 58.6672 37.8028C58.7699 37.9203 58.8933 38.0113 59.0371 38.0759C59.1839 38.1405 59.3498 38.1728 59.5348 38.1728C59.7638 38.1728 59.9767 38.1288 60.1734 38.0407C60.3731 37.9497 60.5449 37.8131 60.6887 37.6311L61.3054 38.3005C61.2055 38.4444 61.069 38.5824 60.8958 38.7145C60.7255 38.8467 60.5199 38.9553 60.2791 39.0404C60.0384 39.1227 59.7638 39.1638 59.4555 39.1638ZM65.1281 38.0363V32.3107H66.4053V39.0757H65.2558L65.1281 38.0363ZM62.1156 36.7502V36.6577C62.1156 36.2936 62.1567 35.9633 62.2389 35.6668C62.3211 35.3673 62.4415 35.1103 62.6 34.896C62.7586 34.6817 62.9538 34.5158 63.1858 34.3983C63.4178 34.2809 63.682 34.2221 63.9786 34.2221C64.2575 34.2221 64.5012 34.2809 64.7097 34.3983C64.9211 34.5158 65.1002 34.6831 65.247 34.9004C65.3968 35.1148 65.5171 35.3687 65.6082 35.6624C65.6992 35.953 65.7653 36.2716 65.8064 36.6181V36.8207C65.7653 37.1525 65.6992 37.4608 65.6082 37.7456C65.5171 38.0304 65.3968 38.28 65.247 38.4943C65.1002 38.7057 64.9211 38.8701 64.7097 38.9876C64.4983 39.105 64.2516 39.1638 63.9698 39.1638C63.6732 39.1638 63.409 39.1036 63.177 38.9832C62.948 38.8628 62.7542 38.694 62.5956 38.4767C62.44 38.2594 62.3211 38.004 62.2389 37.7104C62.1567 37.4167 62.1156 37.0967 62.1156 36.7502ZM63.384 36.6577V36.7502C63.384 36.9469 63.3987 37.1305 63.428 37.3008C63.4603 37.4711 63.5117 37.6223 63.5822 37.7544C63.6556 37.8836 63.7496 37.9849 63.8641 38.0583C63.9815 38.1288 64.1239 38.164 64.2913 38.164C64.5086 38.164 64.6877 38.1155 64.8286 38.0187C64.9695 37.9188 65.0767 37.7823 65.1501 37.6091C65.2265 37.4358 65.2705 37.2362 65.2823 37.0101V36.4331C65.2734 36.2481 65.247 36.0822 65.203 35.9354C65.1619 35.7857 65.1002 35.6579 65.018 35.5522C64.9387 35.4465 64.8389 35.3643 64.7185 35.3056C64.6011 35.2469 64.4616 35.2175 64.3001 35.2175C64.1357 35.2175 63.9947 35.2557 63.8773 35.332C63.7598 35.4054 63.6644 35.5067 63.591 35.6359C63.5205 35.7651 63.4677 35.9178 63.4324 36.094C63.4002 36.2672 63.384 36.4551 63.384 36.6577Z" fill="white" fill-opacity="0.7"/>
<path d="M30.186 24.3885H37.2025C43.0497 24.3885 45.3885 22.0497 45.3885 16.2025V9.18599C45.3885 3.33885 43.0497 1 37.2025 1H30.186C24.3389 1 22 3.33885 22 9.18599V16.2025C22 22.0497 24.3389 24.3885 30.186 24.3885Z" stroke="white" stroke-opacity="0.7" stroke-width="1.75414" stroke-linecap="round" stroke-linejoin="round"/>
<path d="M29.9999 18.3744L36.6823 12.6943L29.9999 7.01422" stroke="white" stroke-opacity="0.7" stroke-width="2.47874" stroke-linecap="round" stroke-linejoin="round"/>
</svg>
