<svg width="32" height="33" viewBox="0 0 32 33" fill="none" xmlns="http://www.w3.org/2000/svg">
<path d="M22 10.3125H10C9.44772 10.3125 9 10.7602 9 11.3125V20.1406C9 20.6929 9.44772 21.1406 10 21.1406H22C22.5523 21.1406 23 20.6929 23 20.1406V11.3125C23 10.7602 22.5523 10.3125 22 10.3125Z" stroke="#B2B2B2"/>
<path d="M12.5 15.4688H18.5" stroke="#B2B2B2"/>
<path d="M17 13.4062L18.0052 14.7884C18.2912 15.1816 18.2529 15.7236 17.9144 16.0727L17 17.0156" stroke="#B2B2B2"/>
<path d="M7.5 24.2344H24.5" stroke="#B2B2B2"/>
<path d="M31.5 16.5C31.5 25.3512 24.546 32.5 16 32.5C7.45398 32.5 0.5 25.3512 0.5 16.5C0.5 7.64883 7.45398 0.5 16 0.5C24.546 0.5 31.5 7.64883 31.5 16.5Z" stroke="#B2B2B2"/>
</svg>
