<svg width="136" height="19" viewBox="0 0 136 19" fill="none" xmlns="http://www.w3.org/2000/svg">
<path d="M32.1338 18H28.793L28.8145 15.8623H32.1338C33.1006 15.8623 33.9098 15.651 34.5615 15.2285C35.2204 14.806 35.7145 14.2008 36.0439 13.4131C36.3805 12.6253 36.5488 11.6872 36.5488 10.5986V9.75C36.5488 8.90495 36.4521 8.15658 36.2588 7.50488C36.0726 6.85319 35.7933 6.30534 35.4209 5.86133C35.0557 5.41732 34.6045 5.08073 34.0674 4.85156C33.5374 4.6224 32.9251 4.50781 32.2305 4.50781H28.7285V2.35938H32.2305C33.2689 2.35938 34.2178 2.53483 35.0771 2.88574C35.9365 3.22949 36.6777 3.72721 37.3008 4.37891C37.931 5.0306 38.4144 5.8112 38.751 6.7207C39.0876 7.63021 39.2559 8.64714 39.2559 9.77148V10.5986C39.2559 11.723 39.0876 12.7399 38.751 13.6494C38.4144 14.5589 37.931 15.3395 37.3008 15.9912C36.6706 16.6357 35.9186 17.1335 35.0449 17.4844C34.1784 17.8281 33.208 18 32.1338 18ZM30.2861 2.35938V18H27.5898V2.35938H30.2861ZM48.6978 15.6689V10.126C48.6978 9.71061 48.6226 9.35254 48.4722 9.05176C48.3218 8.75098 48.0927 8.51823 47.7847 8.35352C47.4839 8.1888 47.1044 8.10645 46.6461 8.10645C46.2235 8.10645 45.8583 8.17806 45.5504 8.32129C45.2424 8.46452 45.0025 8.65788 44.8306 8.90137C44.6587 9.14486 44.5728 9.42057 44.5728 9.72852H41.9947C41.9947 9.27018 42.1057 8.82617 42.3277 8.39648C42.5497 7.9668 42.872 7.58366 43.2945 7.24707C43.717 6.91048 44.2219 6.64551 44.8091 6.45215C45.3964 6.25879 46.0552 6.16211 46.7857 6.16211C47.6594 6.16211 48.4328 6.30892 49.106 6.60254C49.7864 6.89616 50.3199 7.34017 50.7066 7.93457C51.1005 8.52181 51.2974 9.25944 51.2974 10.1475V15.3145C51.2974 15.8444 51.3332 16.3206 51.4048 16.7432C51.4836 17.1585 51.5946 17.5202 51.7379 17.8281V18H49.0845C48.9628 17.7207 48.8661 17.3662 48.7945 16.9365C48.73 16.4997 48.6978 16.0771 48.6978 15.6689ZM49.0738 10.9316L49.0953 12.5322H47.2369C46.7571 12.5322 46.3345 12.5788 45.9693 12.6719C45.6041 12.7578 45.2997 12.8867 45.0562 13.0586C44.8127 13.2305 44.6301 13.4382 44.5084 13.6816C44.3866 13.9251 44.3257 14.2008 44.3257 14.5088C44.3257 14.8167 44.3974 15.0996 44.5406 15.3574C44.6838 15.6081 44.8915 15.805 45.1636 15.9482C45.4429 16.0915 45.7795 16.1631 46.1734 16.1631C46.7033 16.1631 47.1653 16.0557 47.5591 15.8408C47.9602 15.6188 48.2753 15.3503 48.5045 15.0352C48.7336 14.7129 48.8554 14.4085 48.8697 14.1221L49.7076 15.2715C49.6216 15.5651 49.4748 15.8802 49.2671 16.2168C49.0595 16.5534 48.7873 16.8757 48.4507 17.1836C48.1213 17.4844 47.7239 17.7314 47.2584 17.9248C46.8 18.1182 46.2701 18.2148 45.6685 18.2148C44.9094 18.2148 44.2326 18.0645 43.6382 17.7637C43.0438 17.4557 42.5783 17.0439 42.2418 16.5283C41.9052 16.0055 41.7369 15.4147 41.7369 14.7559C41.7369 14.14 41.8515 13.5957 42.0806 13.123C42.317 12.6432 42.6607 12.2422 43.1119 11.9199C43.5702 11.5977 44.1288 11.3542 44.7877 11.1895C45.4465 11.0176 46.1985 10.9316 47.0435 10.9316H49.0738ZM60.965 14.8525C60.965 14.5947 60.9005 14.362 60.7716 14.1543C60.6427 13.9395 60.3956 13.7461 60.0304 13.5742C59.6723 13.4023 59.1424 13.2448 58.4405 13.1016C57.8247 12.9655 57.2589 12.8044 56.7433 12.6182C56.2348 12.4248 55.798 12.1921 55.4327 11.9199C55.0675 11.6478 54.7846 11.3255 54.5841 10.9531C54.3836 10.5807 54.2833 10.151 54.2833 9.66406C54.2833 9.19141 54.3872 8.74382 54.5948 8.32129C54.8025 7.89876 55.0997 7.52637 55.4864 7.2041C55.8732 6.88184 56.3422 6.6276 56.8937 6.44141C57.4523 6.25521 58.0753 6.16211 58.7628 6.16211C59.7368 6.16211 60.5711 6.32682 61.2657 6.65625C61.9676 6.97852 62.5047 7.41895 62.8771 7.97754C63.2495 8.52897 63.4357 9.15202 63.4357 9.84668H60.8468C60.8468 9.53874 60.768 9.25228 60.6105 8.9873C60.4601 8.71517 60.2309 8.49674 59.923 8.33203C59.615 8.16016 59.2283 8.07422 58.7628 8.07422C58.3188 8.07422 57.95 8.14583 57.6564 8.28906C57.3699 8.42513 57.1551 8.60417 57.0118 8.82617C56.8758 9.04818 56.8077 9.29167 56.8077 9.55664C56.8077 9.75 56.8435 9.92546 56.9152 10.083C56.9939 10.2334 57.1228 10.373 57.3019 10.502C57.4809 10.6237 57.7244 10.7383 58.0323 10.8457C58.3474 10.9531 58.7413 11.057 59.214 11.1572C60.102 11.3434 60.8647 11.5833 61.5021 11.877C62.1466 12.1634 62.6407 12.5358 62.9845 12.9941C63.3282 13.4453 63.5001 14.0182 63.5001 14.7129C63.5001 15.2285 63.3891 15.7012 63.1671 16.1309C62.9523 16.5534 62.6372 16.9222 62.2218 17.2373C61.8064 17.5452 61.3087 17.7852 60.7286 17.957C60.1557 18.1289 59.5112 18.2148 58.795 18.2148C57.7423 18.2148 56.8507 18.0286 56.1202 17.6562C55.3898 17.2767 54.8348 16.7933 54.4552 16.2061C54.0828 15.6117 53.8966 14.9958 53.8966 14.3584H56.3995C56.4282 14.8382 56.5607 15.2214 56.797 15.5078C57.0405 15.7871 57.3413 15.9912 57.6993 16.1201C58.0646 16.2419 58.4405 16.3027 58.8273 16.3027C59.2928 16.3027 59.6831 16.2419 59.9982 16.1201C60.3133 15.9912 60.5532 15.8193 60.7179 15.6045C60.8826 15.3825 60.965 15.1318 60.965 14.8525ZM68.7634 1.5V18H66.1852V1.5H68.7634ZM68.3122 11.7588L67.4743 11.748C67.4815 10.946 67.5925 10.2048 67.8073 9.52441C68.0293 8.84408 68.3373 8.25326 68.7311 7.75195C69.1322 7.24349 69.612 6.85319 70.1706 6.58105C70.7292 6.30176 71.3486 6.16211 72.029 6.16211C72.6019 6.16211 73.1175 6.24089 73.5759 6.39844C74.0414 6.55599 74.4424 6.81022 74.779 7.16113C75.1156 7.50488 75.3698 7.95605 75.5417 8.51465C75.7207 9.06608 75.8102 9.73926 75.8102 10.5342V18H73.2106V10.5127C73.2106 9.9541 73.1283 9.51009 72.9636 9.18066C72.806 8.85124 72.5733 8.61491 72.2653 8.47168C71.9574 8.32129 71.5814 8.24609 71.1374 8.24609C70.6719 8.24609 70.2601 8.33919 69.902 8.52539C69.5511 8.71159 69.2575 8.96582 69.0212 9.28809C68.7848 9.61035 68.6058 9.98275 68.4841 10.4053C68.3695 10.8278 68.3122 11.279 68.3122 11.7588ZM78.8821 1.5H81.4709V15.5186L81.2239 18H78.8821V1.5ZM89.0549 12.0811V12.3066C89.0549 13.166 88.9582 13.9574 88.7649 14.6807C88.5787 15.3968 88.2922 16.0199 87.9055 16.5498C87.5259 17.0798 87.0533 17.4915 86.4875 17.7852C85.9289 18.0716 85.2808 18.2148 84.5432 18.2148C83.8199 18.2148 83.1897 18.0788 82.6526 17.8066C82.1155 17.5345 81.6643 17.1478 81.2991 16.6465C80.941 16.1452 80.6509 15.5472 80.4289 14.8525C80.2069 14.1579 80.0494 13.3916 79.9563 12.5537V11.834C80.0494 10.9889 80.2069 10.2227 80.4289 9.53516C80.6509 8.84049 80.941 8.24251 81.2991 7.74121C81.6643 7.23275 82.1119 6.84245 82.6418 6.57031C83.1789 6.29818 83.8056 6.16211 84.5217 6.16211C85.2665 6.16211 85.9218 6.30534 86.4875 6.5918C87.0605 6.87826 87.5367 7.28646 87.9162 7.81641C88.2958 8.33919 88.5787 8.96224 88.7649 9.68555C88.9582 10.4089 89.0549 11.2074 89.0549 12.0811ZM86.4661 12.3066V12.0811C86.4661 11.5583 86.4231 11.0677 86.3371 10.6094C86.2512 10.1439 86.108 9.73568 85.9075 9.38477C85.7141 9.03385 85.4491 8.75814 85.1125 8.55762C84.7831 8.34993 84.3713 8.24609 83.8772 8.24609C83.4189 8.24609 83.025 8.32487 82.6955 8.48242C82.3661 8.63997 82.0904 8.85482 81.8684 9.12695C81.6464 9.39909 81.4709 9.71419 81.342 10.0723C81.2203 10.4303 81.1379 10.8171 81.095 11.2324V13.1768C81.1594 13.7139 81.2955 14.208 81.5032 14.6592C81.718 15.1032 82.0188 15.4613 82.4055 15.7334C82.7922 15.9984 83.2899 16.1309 83.8987 16.1309C84.3785 16.1309 84.7831 16.0342 85.1125 15.8408C85.442 15.6475 85.7034 15.3789 85.8967 15.0352C86.0972 14.6842 86.2405 14.276 86.3264 13.8105C86.4195 13.3451 86.4661 12.8438 86.4661 12.3066ZM91.1922 12.3174V12.0703C91.1922 11.2324 91.3139 10.4554 91.5574 9.73926C91.8009 9.01595 92.1518 8.38932 92.6102 7.85938C93.0756 7.32227 93.6414 6.9069 94.3074 6.61328C94.9806 6.3125 95.7397 6.16211 96.5848 6.16211C97.437 6.16211 98.1961 6.3125 98.8621 6.61328C99.5353 6.9069 100.105 7.32227 100.57 7.85938C101.036 8.38932 101.39 9.01595 101.634 9.73926C101.877 10.4554 101.999 11.2324 101.999 12.0703V12.3174C101.999 13.1553 101.877 13.9323 101.634 14.6484C101.39 15.3646 101.036 15.9912 100.57 16.5283C100.105 17.0583 99.5389 17.4736 98.8728 17.7744C98.2068 18.068 97.4513 18.2148 96.6062 18.2148C95.754 18.2148 94.9913 18.068 94.3182 17.7744C93.6521 17.4736 93.0864 17.0583 92.6209 16.5283C92.1554 15.9912 91.8009 15.3646 91.5574 14.6484C91.3139 13.9323 91.1922 13.1553 91.1922 12.3174ZM93.7811 12.0703V12.3174C93.7811 12.8402 93.8348 13.3343 93.9422 13.7998C94.0496 14.2653 94.2179 14.6735 94.4471 15.0244C94.6762 15.3753 94.9699 15.651 95.3279 15.8516C95.686 16.0521 96.1121 16.1523 96.6062 16.1523C97.0861 16.1523 97.5014 16.0521 97.8523 15.8516C98.2104 15.651 98.504 15.3753 98.7332 15.0244C98.9624 14.6735 99.1307 14.2653 99.2381 13.7998C99.3527 13.3343 99.41 12.8402 99.41 12.3174V12.0703C99.41 11.5547 99.3527 11.0677 99.2381 10.6094C99.1307 10.1439 98.9588 9.7321 98.7225 9.37402C98.4933 9.01595 98.1997 8.73665 97.8416 8.53613C97.4907 8.32845 97.0717 8.22461 96.5848 8.22461C96.0978 8.22461 95.6753 8.32845 95.3172 8.53613C94.9663 8.73665 94.6762 9.01595 94.4471 9.37402C94.2179 9.7321 94.0496 10.1439 93.9422 10.6094C93.8348 11.0677 93.7811 11.5547 93.7811 12.0703ZM111.161 15.6689V10.126C111.161 9.71061 111.086 9.35254 110.936 9.05176C110.786 8.75098 110.556 8.51823 110.248 8.35352C109.948 8.1888 109.568 8.10645 109.11 8.10645C108.687 8.10645 108.322 8.17806 108.014 8.32129C107.706 8.46452 107.466 8.65788 107.294 8.90137C107.122 9.14486 107.036 9.42057 107.036 9.72852H104.458C104.458 9.27018 104.569 8.82617 104.791 8.39648C105.013 7.9668 105.336 7.58366 105.758 7.24707C106.181 6.91048 106.686 6.64551 107.273 6.45215C107.86 6.25879 108.519 6.16211 109.249 6.16211C110.123 6.16211 110.897 6.30892 111.57 6.60254C112.25 6.89616 112.784 7.34017 113.17 7.93457C113.564 8.52181 113.761 9.25944 113.761 10.1475V15.3145C113.761 15.8444 113.797 16.3206 113.869 16.7432C113.947 17.1585 114.058 17.5202 114.202 17.8281V18H111.548C111.426 17.7207 111.33 17.3662 111.258 16.9365C111.194 16.4997 111.161 16.0771 111.161 15.6689ZM111.537 10.9316L111.559 12.5322H109.701C109.221 12.5322 108.798 12.5788 108.433 12.6719C108.068 12.7578 107.763 12.8867 107.52 13.0586C107.276 13.2305 107.094 13.4382 106.972 13.6816C106.85 13.9251 106.789 14.2008 106.789 14.5088C106.789 14.8167 106.861 15.0996 107.004 15.3574C107.147 15.6081 107.355 15.805 107.627 15.9482C107.907 16.0915 108.243 16.1631 108.637 16.1631C109.167 16.1631 109.629 16.0557 110.023 15.8408C110.424 15.6188 110.739 15.3503 110.968 15.0352C111.197 14.7129 111.319 14.4085 111.333 14.1221L112.171 15.2715C112.085 15.5651 111.939 15.8802 111.731 16.2168C111.523 16.5534 111.251 16.8757 110.914 17.1836C110.585 17.4844 110.188 17.7314 109.722 17.9248C109.264 18.1182 108.734 18.2148 108.132 18.2148C107.373 18.2148 106.696 18.0645 106.102 17.7637C105.508 17.4557 105.042 17.0439 104.705 16.5283C104.369 16.0055 104.201 15.4147 104.201 14.7559C104.201 14.14 104.315 13.5957 104.544 13.123C104.781 12.6432 105.124 12.2422 105.576 11.9199C106.034 11.5977 106.592 11.3542 107.251 11.1895C107.91 11.0176 108.662 10.9316 109.507 10.9316H111.537ZM119.508 8.58984V18H116.919V6.37695H119.39L119.508 8.58984ZM123.063 6.30176L123.042 8.70801C122.884 8.67936 122.712 8.65788 122.526 8.64355C122.347 8.62923 122.168 8.62207 121.989 8.62207C121.545 8.62207 121.155 8.68652 120.818 8.81543C120.482 8.93717 120.199 9.11621 119.97 9.35254C119.748 9.58171 119.576 9.861 119.454 10.1904C119.332 10.5199 119.261 10.8887 119.239 11.2969L118.648 11.3398C118.648 10.6094 118.72 9.93262 118.863 9.30957C119.006 8.68652 119.221 8.13867 119.508 7.66602C119.801 7.19336 120.167 6.82454 120.603 6.55957C121.047 6.2946 121.559 6.16211 122.14 6.16211C122.297 6.16211 122.465 6.17643 122.644 6.20508C122.831 6.23372 122.97 6.26595 123.063 6.30176ZM132 15.5938V1.5H134.6V18H132.248L132 15.5938ZM124.438 12.3174V12.0918C124.438 11.2109 124.542 10.4089 124.749 9.68555C124.957 8.95508 125.258 8.32845 125.652 7.80566C126.046 7.27572 126.526 6.87109 127.091 6.5918C127.657 6.30534 128.294 6.16211 129.003 6.16211C129.705 6.16211 130.321 6.29818 130.851 6.57031C131.381 6.84245 131.832 7.23275 132.205 7.74121C132.577 8.24251 132.874 8.84408 133.096 9.5459C133.318 10.2406 133.476 11.014 133.569 11.8662V12.5859C133.476 13.4167 133.318 14.1758 133.096 14.8633C132.874 15.5508 132.577 16.1452 132.205 16.6465C131.832 17.1478 131.377 17.5345 130.84 17.8066C130.31 18.0788 129.691 18.2148 128.982 18.2148C128.28 18.2148 127.646 18.068 127.081 17.7744C126.522 17.4808 126.046 17.069 125.652 16.5391C125.258 16.0091 124.957 15.3861 124.749 14.6699C124.542 13.9466 124.438 13.1624 124.438 12.3174ZM127.027 12.0918V12.3174C127.027 12.8473 127.073 13.3415 127.166 13.7998C127.267 14.2581 127.421 14.6628 127.628 15.0137C127.836 15.3574 128.105 15.6296 128.434 15.8301C128.771 16.0234 129.172 16.1201 129.637 16.1201C130.224 16.1201 130.708 15.9912 131.087 15.7334C131.467 15.4756 131.764 15.1283 131.979 14.6914C132.201 14.2474 132.351 13.7533 132.43 13.209V11.2646C132.387 10.8421 132.298 10.4482 132.162 10.083C132.033 9.71777 131.857 9.39909 131.635 9.12695C131.413 8.84766 131.138 8.63281 130.808 8.48242C130.486 8.32487 130.103 8.24609 129.659 8.24609C129.186 8.24609 128.785 8.34635 128.456 8.54688C128.126 8.7474 127.854 9.02311 127.639 9.37402C127.431 9.72493 127.277 10.1331 127.177 10.5986C127.077 11.0641 127.027 11.5618 127.027 12.0918Z" fill="#0A2632"/>
<path d="M1 6.86686C1 6.22922 1.33437 5.63233 1.89435 5.27032L8.5 1L15.1057 5.27032C15.6656 5.63233 16 6.22922 16 6.86686V15.0606C16 16.1317 15.0737 17 13.931 17H3.06897C1.92631 17 1 16.1317 1 15.0606V6.86686Z" stroke="#0A2632" stroke-width="2" stroke-linejoin="round"/>
<path d="M6.17241 11.6667C6.17241 11.1311 6.63557 10.697 7.2069 10.697H9.7931C10.3644 10.697 10.8276 11.1311 10.8276 11.6667V17H6.17241V11.6667Z" stroke="#0A2632" stroke-width="2" stroke-linejoin="round"/>
</svg>
