<svg width="18" height="18" viewBox="0 0 18 18" fill="none" xmlns="http://www.w3.org/2000/svg">
<path opacity="0.8" d="M7.73437 7H5.63675C5.13807 7 4.73438 7.48882 4.73438 8.09265V13H7.73437V7Z" stroke="#0A2632" stroke-opacity="0.8" stroke-width="1.2" stroke-miterlimit="10" stroke-linecap="round" stroke-linejoin="round"/>
<path opacity="0.8" d="M11.4022 13H11.3978V5.12884C11.3978 4.61551 11.0815 4.19995 10.6829 4.19995H9.72123C9.32266 4.19995 9 4.61551 9 5.12884V7.37775V13H11.4022ZM11.4022 13V9.29254H13.0788C13.471 9.29254 13.7937 9.7081 13.8 10.2214V13H11.4022Z" stroke="#0A2632" stroke-opacity="0.8" stroke-width="1.2" stroke-miterlimit="10" stroke-linecap="round" stroke-linejoin="round"/>
<path opacity="0.8" d="M6.6 17H11.4C15.4 17 17 15.4 17 11.4V6.6C17 2.6 15.4 1 11.4 1H6.6C2.6 1 1 2.6 1 6.6V11.4C1 15.4 2.6 17 6.6 17Z" stroke="#0A2632" stroke-opacity="0.8" stroke-width="1.2" stroke-linecap="round" stroke-linejoin="round"/>
</svg>
