<svg width="98" height="22" viewBox="0 0 98 22" fill="none" xmlns="http://www.w3.org/2000/svg">
<g opacity="0.7">
<path d="M28.6504 2.78125H33.3574C34.4251 2.78125 35.3268 2.94401 36.0625 3.26953C36.8047 3.59505 37.3678 4.07682 37.752 4.71484C38.1426 5.34635 38.3379 6.12435 38.3379 7.04883C38.3379 7.69987 38.2044 8.29557 37.9375 8.83594C37.6771 9.36979 37.2995 9.82552 36.8047 10.2031C36.3164 10.5742 35.7305 10.8509 35.0469 11.0332L34.5195 11.2383H30.0957L30.0762 9.70508H33.416C34.0931 9.70508 34.6562 9.58789 35.1055 9.35352C35.5547 9.11263 35.8932 8.79036 36.1211 8.38672C36.349 7.98307 36.4629 7.53711 36.4629 7.04883C36.4629 6.50195 36.3555 6.02344 36.1406 5.61328C35.9258 5.20312 35.5872 4.88737 35.125 4.66602C34.6693 4.43815 34.0801 4.32422 33.3574 4.32422H30.5352V17H28.6504V2.78125ZM36.9609 17L33.5039 10.5547L35.4668 10.5449L38.9727 16.8828V17H36.9609ZM45.2859 17.1953C44.5503 17.1953 43.8829 17.0716 43.284 16.8242C42.6915 16.5703 42.1805 16.2155 41.7508 15.7598C41.3276 15.304 41.0021 14.7637 40.7742 14.1387C40.5464 13.5137 40.4324 12.8301 40.4324 12.0879V11.6777C40.4324 10.8184 40.5594 10.0534 40.8133 9.38281C41.0672 8.70573 41.4122 8.13281 41.8484 7.66406C42.2846 7.19531 42.7794 6.84049 43.3328 6.59961C43.8862 6.35872 44.4591 6.23828 45.0516 6.23828C45.8068 6.23828 46.4578 6.36849 47.0047 6.62891C47.5581 6.88932 48.0105 7.25391 48.3621 7.72266C48.7137 8.1849 48.9741 8.73177 49.1434 9.36328C49.3126 9.98828 49.3973 10.6719 49.3973 11.4141V12.2246H41.5066V10.75H47.5906V10.6133C47.5646 10.1445 47.4669 9.6888 47.2977 9.24609C47.1349 8.80339 46.8745 8.4388 46.5164 8.15234C46.1583 7.86589 45.6701 7.72266 45.0516 7.72266C44.6414 7.72266 44.2638 7.81055 43.9187 7.98633C43.5737 8.1556 43.2775 8.40951 43.0301 8.74805C42.7827 9.08659 42.5906 9.5 42.4539 9.98828C42.3172 10.4766 42.2488 11.0397 42.2488 11.6777V12.0879C42.2488 12.5892 42.3172 13.0612 42.4539 13.5039C42.5971 13.9401 42.8022 14.3242 43.0691 14.6562C43.3426 14.9883 43.6714 15.2487 44.0555 15.4375C44.4461 15.6263 44.8888 15.7207 45.3836 15.7207C46.0216 15.7207 46.562 15.5905 47.0047 15.3301C47.4474 15.0697 47.8348 14.7214 48.1668 14.2852L49.2605 15.1543C49.0327 15.4993 48.743 15.8281 48.3914 16.1406C48.0398 16.4531 47.6069 16.707 47.0926 16.9023C46.5848 17.0977 45.9826 17.1953 45.2859 17.1953ZM53.5133 8.46484V21.0625H51.6969V6.43359H53.357L53.5133 8.46484ZM60.6324 11.6289V11.834C60.6324 12.6022 60.5413 13.3151 60.359 13.9727C60.1767 14.6237 59.9098 15.1901 59.5582 15.6719C59.2132 16.1536 58.7867 16.528 58.2789 16.7949C57.7711 17.0618 57.1884 17.1953 56.5309 17.1953C55.8603 17.1953 55.2678 17.0846 54.7535 16.8633C54.2392 16.6419 53.803 16.3197 53.4449 15.8965C53.0868 15.4733 52.8004 14.9655 52.5855 14.373C52.3772 13.7806 52.234 13.1133 52.1559 12.3711V11.2773C52.234 10.4961 52.3805 9.79622 52.5953 9.17773C52.8102 8.55924 53.0934 8.0319 53.4449 7.5957C53.803 7.15299 54.2359 6.81771 54.7437 6.58984C55.2516 6.35547 55.8375 6.23828 56.5016 6.23828C57.1656 6.23828 57.7548 6.36849 58.2691 6.62891C58.7835 6.88281 59.2164 7.2474 59.568 7.72266C59.9195 8.19792 60.1832 8.76758 60.359 9.43164C60.5413 10.0892 60.6324 10.8216 60.6324 11.6289ZM58.816 11.834V11.6289C58.816 11.1016 58.7607 10.6068 58.65 10.1445C58.5393 9.67578 58.3668 9.26562 58.1324 8.91406C57.9046 8.55599 57.6116 8.27604 57.2535 8.07422C56.8954 7.86589 56.469 7.76172 55.9742 7.76172C55.5185 7.76172 55.1214 7.83984 54.7828 7.99609C54.4508 8.15234 54.1676 8.36393 53.9332 8.63086C53.6988 8.89128 53.5068 9.19076 53.357 9.5293C53.2138 9.86133 53.1064 10.2064 53.0348 10.5645V13.0938C53.165 13.5495 53.3473 13.9792 53.5816 14.3828C53.816 14.7799 54.1285 15.1022 54.5191 15.3496C54.9098 15.5905 55.4013 15.7109 55.9937 15.7109C56.482 15.7109 56.902 15.61 57.2535 15.4082C57.6116 15.1999 57.9046 14.9167 58.1324 14.5586C58.3668 14.2005 58.5393 13.7904 58.65 13.3281C58.7607 12.8594 58.816 12.3613 58.816 11.834ZM62.6586 11.834V11.6094C62.6586 10.8477 62.7693 10.1413 62.9906 9.49023C63.212 8.83268 63.531 8.26302 63.9477 7.78125C64.3643 7.29297 64.8689 6.91536 65.4613 6.64844C66.0538 6.375 66.7178 6.23828 67.4535 6.23828C68.1957 6.23828 68.863 6.375 69.4555 6.64844C70.0544 6.91536 70.5622 7.29297 70.9789 7.78125C71.4021 8.26302 71.7243 8.83268 71.9457 9.49023C72.1671 10.1413 72.2777 10.8477 72.2777 11.6094V11.834C72.2777 12.5957 72.1671 13.3021 71.9457 13.9531C71.7243 14.6042 71.4021 15.1738 70.9789 15.6621C70.5622 16.1439 70.0577 16.5215 69.4652 16.7949C68.8793 17.0618 68.2152 17.1953 67.473 17.1953C66.7309 17.1953 66.0635 17.0618 65.4711 16.7949C64.8786 16.5215 64.3708 16.1439 63.9477 15.6621C63.531 15.1738 63.212 14.6042 62.9906 13.9531C62.7693 13.3021 62.6586 12.5957 62.6586 11.834ZM64.4652 11.6094V11.834C64.4652 12.3613 64.5271 12.8594 64.6508 13.3281C64.7745 13.7904 64.96 14.2005 65.2074 14.5586C65.4613 14.9167 65.7771 15.1999 66.1547 15.4082C66.5323 15.61 66.9717 15.7109 67.473 15.7109C67.9678 15.7109 68.4008 15.61 68.7719 15.4082C69.1495 15.1999 69.462 14.9167 69.7094 14.5586C69.9568 14.2005 70.1423 13.7904 70.266 13.3281C70.3962 12.8594 70.4613 12.3613 70.4613 11.834V11.6094C70.4613 11.0885 70.3962 10.597 70.266 10.1348C70.1423 9.66602 69.9535 9.2526 69.6996 8.89453C69.4522 8.52995 69.1397 8.24349 68.7621 8.03516C68.391 7.82682 67.9548 7.72266 67.4535 7.72266C66.9587 7.72266 66.5225 7.82682 66.1449 8.03516C65.7738 8.24349 65.4613 8.52995 65.2074 8.89453C64.96 9.2526 64.7745 9.66602 64.6508 10.1348C64.5271 10.597 64.4652 11.0885 64.4652 11.6094ZM76.55 8.09375V17H74.7434V6.43359H76.5012L76.55 8.09375ZM79.8508 6.375L79.841 8.05469C79.6913 8.02214 79.548 8.0026 79.4113 7.99609C79.2811 7.98307 79.1314 7.97656 78.9621 7.97656C78.5454 7.97656 78.1776 8.04167 77.8586 8.17188C77.5396 8.30208 77.2694 8.48438 77.048 8.71875C76.8267 8.95312 76.6509 9.23307 76.5207 9.55859C76.397 9.8776 76.3156 10.2292 76.2766 10.6133L75.7687 10.9062C75.7687 10.2682 75.8306 9.66927 75.9543 9.10938C76.0845 8.54948 76.2831 8.05469 76.55 7.625C76.8169 7.1888 77.1555 6.85026 77.5656 6.60938C77.9823 6.36198 78.4771 6.23828 79.05 6.23828C79.1802 6.23828 79.3299 6.25456 79.4992 6.28711C79.6685 6.31315 79.7857 6.34245 79.8508 6.375ZM86.6328 6.43359V7.82031H80.9199V6.43359H86.6328ZM82.8535 3.86523H84.6602V14.3828C84.6602 14.7409 84.7155 15.0111 84.8262 15.1934C84.9368 15.3757 85.0801 15.4961 85.2559 15.5547C85.4316 15.6133 85.6204 15.6426 85.8223 15.6426C85.972 15.6426 86.1283 15.6296 86.291 15.6035C86.4603 15.571 86.5872 15.5449 86.6719 15.5254L86.6816 17C86.5384 17.0456 86.3496 17.0879 86.1152 17.127C85.8874 17.1725 85.6107 17.1953 85.2852 17.1953C84.8424 17.1953 84.4355 17.1074 84.0645 16.9316C83.6934 16.7559 83.3971 16.4629 83.1758 16.0527C82.9609 15.6361 82.8535 15.0762 82.8535 14.373V3.86523ZM95.1043 14.1973C95.1043 13.9368 95.0457 13.696 94.9285 13.4746C94.8178 13.2467 94.5867 13.0417 94.2352 12.8594C93.8901 12.6706 93.3693 12.5078 92.6727 12.3711C92.0867 12.2474 91.5561 12.1009 91.0809 11.9316C90.6121 11.7624 90.2117 11.5573 89.8797 11.3164C89.5542 11.0755 89.3035 10.7923 89.1277 10.4668C88.952 10.1413 88.8641 9.76042 88.8641 9.32422C88.8641 8.90755 88.9552 8.51367 89.1375 8.14258C89.3263 7.77148 89.59 7.44271 89.9285 7.15625C90.2736 6.86979 90.687 6.64518 91.1688 6.48242C91.6505 6.31966 92.1876 6.23828 92.7801 6.23828C93.6264 6.23828 94.3491 6.38802 94.948 6.6875C95.547 6.98698 96.006 7.38737 96.325 7.88867C96.644 8.38346 96.8035 8.93359 96.8035 9.53906H94.9969C94.9969 9.24609 94.909 8.96289 94.7332 8.68945C94.5639 8.40951 94.3133 8.17839 93.9813 7.99609C93.6557 7.8138 93.2553 7.72266 92.7801 7.72266C92.2788 7.72266 91.8719 7.80078 91.5594 7.95703C91.2534 8.10677 91.0288 8.29883 90.8855 8.5332C90.7488 8.76758 90.6805 9.01497 90.6805 9.27539C90.6805 9.4707 90.713 9.64648 90.7781 9.80273C90.8497 9.95247 90.9734 10.0924 91.1492 10.2227C91.325 10.3464 91.5724 10.4635 91.8914 10.5742C92.2104 10.6849 92.6173 10.7956 93.1121 10.9062C93.978 11.1016 94.6909 11.3359 95.2508 11.6094C95.8107 11.8828 96.2273 12.2181 96.5008 12.6152C96.7742 13.0124 96.9109 13.4941 96.9109 14.0605C96.9109 14.5228 96.8133 14.946 96.618 15.3301C96.4292 15.7142 96.1525 16.0462 95.7879 16.3262C95.4298 16.5996 95.0001 16.8145 94.4988 16.9707C94.004 17.1204 93.4474 17.1953 92.8289 17.1953C91.8979 17.1953 91.1102 17.0293 90.4656 16.6973C89.8211 16.3652 89.3328 15.9355 89.0008 15.4082C88.6688 14.8809 88.5027 14.3242 88.5027 13.7383H90.3191C90.3452 14.2331 90.4884 14.627 90.7488 14.9199C91.0092 15.2064 91.3283 15.4115 91.7059 15.5352C92.0835 15.6523 92.4578 15.7109 92.8289 15.7109C93.3237 15.7109 93.7371 15.6458 94.0691 15.5156C94.4077 15.3854 94.6648 15.2064 94.8406 14.9785C95.0164 14.7507 95.1043 14.4902 95.1043 14.1973Z" fill="#0A2632" fill-opacity="0.7"/>
<path opacity="0.8" d="M7.73437 7H5.63675C5.13807 7 4.73438 7.48882 4.73438 8.09265V13H7.73437V7Z" stroke="#0A2632" stroke-opacity="0.8" stroke-width="1.2" stroke-miterlimit="10" stroke-linecap="round" stroke-linejoin="round"/>
<path opacity="0.8" d="M11.4022 13H11.3978V5.12884C11.3978 4.61551 11.0815 4.19995 10.6829 4.19995H9.72123C9.32266 4.19995 9 4.61551 9 5.12884V7.37775V13H11.4022ZM11.4022 13V9.29254H13.0788C13.471 9.29254 13.7937 9.7081 13.8 10.2214V13H11.4022Z" stroke="#0A2632" stroke-opacity="0.8" stroke-width="1.2" stroke-miterlimit="10" stroke-linecap="round" stroke-linejoin="round"/>
<path opacity="0.8" d="M6.6 17H11.4C15.4 17 17 15.4 17 11.4V6.6C17 2.6 15.4 1 11.4 1H6.6C2.6 1 1 2.6 1 6.6V11.4C1 15.4 2.6 17 6.6 17Z" stroke="#0A2632" stroke-opacity="0.8" stroke-width="1.2" stroke-linecap="round" stroke-linejoin="round"/>
</g>
</svg>
