<svg width="13" height="18" viewBox="0 0 13 18" fill="none" xmlns="http://www.w3.org/2000/svg">
<path d="M6.49597 8.16438C6.41532 8.1563 6.31855 8.1563 6.22984 8.16438C5.3042 8.13291 4.42713 7.74185 3.78438 7.07403C3.14163 6.40621 2.78366 5.51406 2.78629 4.58652C2.78629 2.60779 4.38306 1.00058 6.36694 1.00058C6.83662 0.992098 7.30338 1.07634 7.74056 1.24851C8.17773 1.42068 8.57677 1.6774 8.91488 2.00401C9.25299 2.33062 9.52355 2.72073 9.71112 3.15205C9.89869 3.58338 9.99959 4.04749 10.0081 4.51787C10.0165 4.98825 9.93242 5.4557 9.7605 5.89352C9.58859 6.33134 9.33225 6.73097 9.00612 7.06958C8.67999 7.40819 8.29046 7.67915 7.85977 7.867C7.42907 8.05484 6.96566 8.1559 6.49597 8.16438ZM2.46371 11.1446C0.512097 12.453 0.512097 14.5851 2.46371 15.8855C4.68145 17.3715 8.31855 17.3715 10.5363 15.8855C12.4879 14.5771 12.4879 12.4449 10.5363 11.1446C8.32661 9.6666 4.68952 9.6666 2.46371 11.1446Z" stroke="#0A2632" stroke-opacity="0.7" stroke-width="1.28006" stroke-linecap="round" stroke-linejoin="round"/>
</svg>
